%TF.GenerationSoftware,KiCad,Pcbnew,(6.0.5)*%
%TF.CreationDate,2022-09-19T21:46:26-04:00*%
%TF.ProjectId,valve_distortion,76616c76-655f-4646-9973-746f7274696f,rev?*%
%TF.SameCoordinates,Original*%
%TF.FileFunction,Legend,Bot*%
%TF.FilePolarity,Positive*%
%FSLAX46Y46*%
G04 Gerber Fmt 4.6, Leading zero omitted, Abs format (unit mm)*
G04 Created by KiCad (PCBNEW (6.0.5)) date 2022-09-19 21:46:26*
%MOMM*%
%LPD*%
G01*
G04 APERTURE LIST*
%ADD10C,0.150000*%
G04 APERTURE END LIST*
D10*
X101774047Y-64222380D02*
X101774047Y-64936666D01*
X101821666Y-65079523D01*
X101916904Y-65174761D01*
X102059761Y-65222380D01*
X102155000Y-65222380D01*
X100821666Y-65222380D02*
X101297857Y-65222380D01*
X101297857Y-64222380D01*
X99916904Y-65127142D02*
X99964523Y-65174761D01*
X100107380Y-65222380D01*
X100202619Y-65222380D01*
X100345476Y-65174761D01*
X100440714Y-65079523D01*
X100488333Y-64984285D01*
X100535952Y-64793809D01*
X100535952Y-64650952D01*
X100488333Y-64460476D01*
X100440714Y-64365238D01*
X100345476Y-64270000D01*
X100202619Y-64222380D01*
X100107380Y-64222380D01*
X99964523Y-64270000D01*
X99916904Y-64317619D01*
X99202619Y-64222380D02*
X99202619Y-64936666D01*
X99250238Y-65079523D01*
X99345476Y-65174761D01*
X99488333Y-65222380D01*
X99583571Y-65222380D01*
X98250238Y-65222380D02*
X98726428Y-65222380D01*
X98726428Y-64222380D01*
X97345476Y-65127142D02*
X97393095Y-65174761D01*
X97535952Y-65222380D01*
X97631190Y-65222380D01*
X97774047Y-65174761D01*
X97869285Y-65079523D01*
X97916904Y-64984285D01*
X97964523Y-64793809D01*
X97964523Y-64650952D01*
X97916904Y-64460476D01*
X97869285Y-64365238D01*
X97774047Y-64270000D01*
X97631190Y-64222380D01*
X97535952Y-64222380D01*
X97393095Y-64270000D01*
X97345476Y-64317619D01*
X96631190Y-64222380D02*
X96631190Y-64936666D01*
X96678809Y-65079523D01*
X96774047Y-65174761D01*
X96916904Y-65222380D01*
X97012142Y-65222380D01*
X95678809Y-65222380D02*
X96155000Y-65222380D01*
X96155000Y-64222380D01*
X94774047Y-65127142D02*
X94821666Y-65174761D01*
X94964523Y-65222380D01*
X95059761Y-65222380D01*
X95202619Y-65174761D01*
X95297857Y-65079523D01*
X95345476Y-64984285D01*
X95393095Y-64793809D01*
X95393095Y-64650952D01*
X95345476Y-64460476D01*
X95297857Y-64365238D01*
X95202619Y-64270000D01*
X95059761Y-64222380D01*
X94964523Y-64222380D01*
X94821666Y-64270000D01*
X94774047Y-64317619D01*
X94059761Y-64222380D02*
X94059761Y-64936666D01*
X94107380Y-65079523D01*
X94202619Y-65174761D01*
X94345476Y-65222380D01*
X94440714Y-65222380D01*
X93107380Y-65222380D02*
X93583571Y-65222380D01*
X93583571Y-64222380D01*
X92202619Y-65127142D02*
X92250238Y-65174761D01*
X92393095Y-65222380D01*
X92488333Y-65222380D01*
X92631190Y-65174761D01*
X92726428Y-65079523D01*
X92774047Y-64984285D01*
X92821666Y-64793809D01*
X92821666Y-64650952D01*
X92774047Y-64460476D01*
X92726428Y-64365238D01*
X92631190Y-64270000D01*
X92488333Y-64222380D01*
X92393095Y-64222380D01*
X92250238Y-64270000D01*
X92202619Y-64317619D01*
M02*
