%TF.GenerationSoftware,KiCad,Pcbnew,(6.0.5)*%
%TF.CreationDate,2022-09-21T11:22:34-04:00*%
%TF.ProjectId,valve_distortion,76616c76-655f-4646-9973-746f7274696f,0.1*%
%TF.SameCoordinates,Original*%
%TF.FileFunction,Legend,Top*%
%TF.FilePolarity,Positive*%
%FSLAX46Y46*%
G04 Gerber Fmt 4.6, Leading zero omitted, Abs format (unit mm)*
G04 Created by KiCad (PCBNEW (6.0.5)) date 2022-09-21 11:22:34*
%MOMM*%
%LPD*%
G01*
G04 APERTURE LIST*
%ADD10C,0.150000*%
%ADD11C,0.130000*%
%ADD12C,0.120000*%
G04 APERTURE END LIST*
D10*
X76979047Y-76922380D02*
X77312380Y-77922380D01*
X77645714Y-76922380D01*
X77931428Y-77636666D02*
X78407619Y-77636666D01*
X77836190Y-77922380D02*
X78169523Y-76922380D01*
X78502857Y-77922380D01*
X79312380Y-77922380D02*
X78836190Y-77922380D01*
X78836190Y-76922380D01*
X79502857Y-76922380D02*
X79836190Y-77922380D01*
X80169523Y-76922380D01*
X80502857Y-77398571D02*
X80836190Y-77398571D01*
X80979047Y-77922380D02*
X80502857Y-77922380D01*
X80502857Y-76922380D01*
X80979047Y-76922380D01*
X82169523Y-77922380D02*
X82169523Y-76922380D01*
X82407619Y-76922380D01*
X82550476Y-76970000D01*
X82645714Y-77065238D01*
X82693333Y-77160476D01*
X82740952Y-77350952D01*
X82740952Y-77493809D01*
X82693333Y-77684285D01*
X82645714Y-77779523D01*
X82550476Y-77874761D01*
X82407619Y-77922380D01*
X82169523Y-77922380D01*
X83169523Y-77922380D02*
X83169523Y-76922380D01*
X83598095Y-77874761D02*
X83740952Y-77922380D01*
X83979047Y-77922380D01*
X84074285Y-77874761D01*
X84121904Y-77827142D01*
X84169523Y-77731904D01*
X84169523Y-77636666D01*
X84121904Y-77541428D01*
X84074285Y-77493809D01*
X83979047Y-77446190D01*
X83788571Y-77398571D01*
X83693333Y-77350952D01*
X83645714Y-77303333D01*
X83598095Y-77208095D01*
X83598095Y-77112857D01*
X83645714Y-77017619D01*
X83693333Y-76970000D01*
X83788571Y-76922380D01*
X84026666Y-76922380D01*
X84169523Y-76970000D01*
X84455238Y-76922380D02*
X85026666Y-76922380D01*
X84740952Y-77922380D02*
X84740952Y-76922380D01*
X85550476Y-76922380D02*
X85740952Y-76922380D01*
X85836190Y-76970000D01*
X85931428Y-77065238D01*
X85979047Y-77255714D01*
X85979047Y-77589047D01*
X85931428Y-77779523D01*
X85836190Y-77874761D01*
X85740952Y-77922380D01*
X85550476Y-77922380D01*
X85455238Y-77874761D01*
X85360000Y-77779523D01*
X85312380Y-77589047D01*
X85312380Y-77255714D01*
X85360000Y-77065238D01*
X85455238Y-76970000D01*
X85550476Y-76922380D01*
X86979047Y-77922380D02*
X86645714Y-77446190D01*
X86407619Y-77922380D02*
X86407619Y-76922380D01*
X86788571Y-76922380D01*
X86883809Y-76970000D01*
X86931428Y-77017619D01*
X86979047Y-77112857D01*
X86979047Y-77255714D01*
X86931428Y-77350952D01*
X86883809Y-77398571D01*
X86788571Y-77446190D01*
X86407619Y-77446190D01*
X87264761Y-76922380D02*
X87836190Y-76922380D01*
X87550476Y-77922380D02*
X87550476Y-76922380D01*
X88169523Y-77922380D02*
X88169523Y-76922380D01*
X88836190Y-76922380D02*
X89026666Y-76922380D01*
X89121904Y-76970000D01*
X89217142Y-77065238D01*
X89264761Y-77255714D01*
X89264761Y-77589047D01*
X89217142Y-77779523D01*
X89121904Y-77874761D01*
X89026666Y-77922380D01*
X88836190Y-77922380D01*
X88740952Y-77874761D01*
X88645714Y-77779523D01*
X88598095Y-77589047D01*
X88598095Y-77255714D01*
X88645714Y-77065238D01*
X88740952Y-76970000D01*
X88836190Y-76922380D01*
X89693333Y-77922380D02*
X89693333Y-76922380D01*
X90264761Y-77922380D01*
X90264761Y-76922380D01*
X91502857Y-77922380D02*
X91502857Y-76922380D01*
X91883809Y-76922380D01*
X91979047Y-76970000D01*
X92026666Y-77017619D01*
X92074285Y-77112857D01*
X92074285Y-77255714D01*
X92026666Y-77350952D01*
X91979047Y-77398571D01*
X91883809Y-77446190D01*
X91502857Y-77446190D01*
X92502857Y-77398571D02*
X92836190Y-77398571D01*
X92979047Y-77922380D02*
X92502857Y-77922380D01*
X92502857Y-76922380D01*
X92979047Y-76922380D01*
X93407619Y-77922380D02*
X93407619Y-76922380D01*
X93645714Y-76922380D01*
X93788571Y-76970000D01*
X93883809Y-77065238D01*
X93931428Y-77160476D01*
X93979047Y-77350952D01*
X93979047Y-77493809D01*
X93931428Y-77684285D01*
X93883809Y-77779523D01*
X93788571Y-77874761D01*
X93645714Y-77922380D01*
X93407619Y-77922380D01*
X94360000Y-77636666D02*
X94836190Y-77636666D01*
X94264761Y-77922380D02*
X94598095Y-76922380D01*
X94931428Y-77922380D01*
X95740952Y-77922380D02*
X95264761Y-77922380D01*
X95264761Y-76922380D01*
X175140952Y-75010238D02*
X175093333Y-75105476D01*
X175045714Y-75153095D01*
X174950476Y-75200714D01*
X174902857Y-75200714D01*
X174807619Y-75153095D01*
X174760000Y-75105476D01*
X174712380Y-75010238D01*
X174712380Y-74819761D01*
X174760000Y-74724523D01*
X174807619Y-74676904D01*
X174902857Y-74629285D01*
X174950476Y-74629285D01*
X175045714Y-74676904D01*
X175093333Y-74724523D01*
X175140952Y-74819761D01*
X175140952Y-75010238D01*
X175188571Y-75105476D01*
X175236190Y-75153095D01*
X175331428Y-75200714D01*
X175521904Y-75200714D01*
X175617142Y-75153095D01*
X175664761Y-75105476D01*
X175712380Y-75010238D01*
X175712380Y-74819761D01*
X175664761Y-74724523D01*
X175617142Y-74676904D01*
X175521904Y-74629285D01*
X175331428Y-74629285D01*
X175236190Y-74676904D01*
X175188571Y-74724523D01*
X175140952Y-74819761D01*
X73074285Y-82335714D02*
X73074285Y-83145238D01*
X73026666Y-83240476D01*
X72979047Y-83288095D01*
X72883809Y-83335714D01*
X72740952Y-83335714D01*
X72645714Y-83288095D01*
X73074285Y-82954761D02*
X72979047Y-83002380D01*
X72788571Y-83002380D01*
X72693333Y-82954761D01*
X72645714Y-82907142D01*
X72598095Y-82811904D01*
X72598095Y-82526190D01*
X72645714Y-82430952D01*
X72693333Y-82383333D01*
X72788571Y-82335714D01*
X72979047Y-82335714D01*
X73074285Y-82383333D01*
X73550476Y-83002380D02*
X73550476Y-82335714D01*
X73550476Y-82002380D02*
X73502857Y-82050000D01*
X73550476Y-82097619D01*
X73598095Y-82050000D01*
X73550476Y-82002380D01*
X73550476Y-82097619D01*
X73883809Y-82335714D02*
X74264761Y-82335714D01*
X74026666Y-82002380D02*
X74026666Y-82859523D01*
X74074285Y-82954761D01*
X74169523Y-83002380D01*
X74264761Y-83002380D01*
X74598095Y-83002380D02*
X74598095Y-82002380D01*
X75026666Y-83002380D02*
X75026666Y-82478571D01*
X74979047Y-82383333D01*
X74883809Y-82335714D01*
X74740952Y-82335714D01*
X74645714Y-82383333D01*
X74598095Y-82430952D01*
X75931428Y-82335714D02*
X75931428Y-83002380D01*
X75502857Y-82335714D02*
X75502857Y-82859523D01*
X75550476Y-82954761D01*
X75645714Y-83002380D01*
X75788571Y-83002380D01*
X75883809Y-82954761D01*
X75931428Y-82907142D01*
X76407619Y-83002380D02*
X76407619Y-82002380D01*
X76407619Y-82383333D02*
X76502857Y-82335714D01*
X76693333Y-82335714D01*
X76788571Y-82383333D01*
X76836190Y-82430952D01*
X76883809Y-82526190D01*
X76883809Y-82811904D01*
X76836190Y-82907142D01*
X76788571Y-82954761D01*
X76693333Y-83002380D01*
X76502857Y-83002380D01*
X76407619Y-82954761D01*
X77312380Y-82907142D02*
X77360000Y-82954761D01*
X77312380Y-83002380D01*
X77264761Y-82954761D01*
X77312380Y-82907142D01*
X77312380Y-83002380D01*
X78217142Y-82954761D02*
X78121904Y-83002380D01*
X77931428Y-83002380D01*
X77836190Y-82954761D01*
X77788571Y-82907142D01*
X77740952Y-82811904D01*
X77740952Y-82526190D01*
X77788571Y-82430952D01*
X77836190Y-82383333D01*
X77931428Y-82335714D01*
X78121904Y-82335714D01*
X78217142Y-82383333D01*
X78788571Y-83002380D02*
X78693333Y-82954761D01*
X78645714Y-82907142D01*
X78598095Y-82811904D01*
X78598095Y-82526190D01*
X78645714Y-82430952D01*
X78693333Y-82383333D01*
X78788571Y-82335714D01*
X78931428Y-82335714D01*
X79026666Y-82383333D01*
X79074285Y-82430952D01*
X79121904Y-82526190D01*
X79121904Y-82811904D01*
X79074285Y-82907142D01*
X79026666Y-82954761D01*
X78931428Y-83002380D01*
X78788571Y-83002380D01*
X79550476Y-83002380D02*
X79550476Y-82335714D01*
X79550476Y-82430952D02*
X79598095Y-82383333D01*
X79693333Y-82335714D01*
X79836190Y-82335714D01*
X79931428Y-82383333D01*
X79979047Y-82478571D01*
X79979047Y-83002380D01*
X79979047Y-82478571D02*
X80026666Y-82383333D01*
X80121904Y-82335714D01*
X80264761Y-82335714D01*
X80360000Y-82383333D01*
X80407619Y-82478571D01*
X80407619Y-83002380D01*
X81598095Y-81954761D02*
X80740952Y-83240476D01*
X81931428Y-83002380D02*
X81931428Y-82335714D01*
X81931428Y-82430952D02*
X81979047Y-82383333D01*
X82074285Y-82335714D01*
X82217142Y-82335714D01*
X82312380Y-82383333D01*
X82360000Y-82478571D01*
X82360000Y-83002380D01*
X82360000Y-82478571D02*
X82407619Y-82383333D01*
X82502857Y-82335714D01*
X82645714Y-82335714D01*
X82740952Y-82383333D01*
X82788571Y-82478571D01*
X82788571Y-83002380D01*
X83264761Y-82335714D02*
X83264761Y-83335714D01*
X83264761Y-82383333D02*
X83360000Y-82335714D01*
X83550476Y-82335714D01*
X83645714Y-82383333D01*
X83693333Y-82430952D01*
X83740952Y-82526190D01*
X83740952Y-82811904D01*
X83693333Y-82907142D01*
X83645714Y-82954761D01*
X83550476Y-83002380D01*
X83360000Y-83002380D01*
X83264761Y-82954761D01*
X84169523Y-83002380D02*
X84169523Y-82335714D01*
X84169523Y-82526190D02*
X84217142Y-82430952D01*
X84264761Y-82383333D01*
X84360000Y-82335714D01*
X84455238Y-82335714D01*
X84931428Y-83002380D02*
X84836190Y-82954761D01*
X84788571Y-82907142D01*
X84740952Y-82811904D01*
X84740952Y-82526190D01*
X84788571Y-82430952D01*
X84836190Y-82383333D01*
X84931428Y-82335714D01*
X85074285Y-82335714D01*
X85169523Y-82383333D01*
X85217142Y-82430952D01*
X85264761Y-82526190D01*
X85264761Y-82811904D01*
X85217142Y-82907142D01*
X85169523Y-82954761D01*
X85074285Y-83002380D01*
X84931428Y-83002380D01*
X85645714Y-82954761D02*
X85740952Y-83002380D01*
X85931428Y-83002380D01*
X86026666Y-82954761D01*
X86074285Y-82859523D01*
X86074285Y-82811904D01*
X86026666Y-82716666D01*
X85931428Y-82669047D01*
X85788571Y-82669047D01*
X85693333Y-82621428D01*
X85645714Y-82526190D01*
X85645714Y-82478571D01*
X85693333Y-82383333D01*
X85788571Y-82335714D01*
X85931428Y-82335714D01*
X86026666Y-82383333D01*
X86502857Y-83002380D02*
X86502857Y-82002380D01*
X86598095Y-82621428D02*
X86883809Y-83002380D01*
X86883809Y-82335714D02*
X86502857Y-82716666D01*
X88026666Y-81954761D02*
X87169523Y-83240476D01*
X88264761Y-82335714D02*
X88502857Y-83002380D01*
X88740952Y-82335714D01*
X89550476Y-83002380D02*
X89550476Y-82478571D01*
X89502857Y-82383333D01*
X89407619Y-82335714D01*
X89217142Y-82335714D01*
X89121904Y-82383333D01*
X89550476Y-82954761D02*
X89455238Y-83002380D01*
X89217142Y-83002380D01*
X89121904Y-82954761D01*
X89074285Y-82859523D01*
X89074285Y-82764285D01*
X89121904Y-82669047D01*
X89217142Y-82621428D01*
X89455238Y-82621428D01*
X89550476Y-82573809D01*
X90169523Y-83002380D02*
X90074285Y-82954761D01*
X90026666Y-82859523D01*
X90026666Y-82002380D01*
X90455238Y-82335714D02*
X90693333Y-83002380D01*
X90931428Y-82335714D01*
X91693333Y-82954761D02*
X91598095Y-83002380D01*
X91407619Y-83002380D01*
X91312380Y-82954761D01*
X91264761Y-82859523D01*
X91264761Y-82478571D01*
X91312380Y-82383333D01*
X91407619Y-82335714D01*
X91598095Y-82335714D01*
X91693333Y-82383333D01*
X91740952Y-82478571D01*
X91740952Y-82573809D01*
X91264761Y-82669047D01*
X91931428Y-83097619D02*
X92693333Y-83097619D01*
X93360000Y-83002380D02*
X93360000Y-82002380D01*
X93360000Y-82954761D02*
X93264761Y-83002380D01*
X93074285Y-83002380D01*
X92979047Y-82954761D01*
X92931428Y-82907142D01*
X92883809Y-82811904D01*
X92883809Y-82526190D01*
X92931428Y-82430952D01*
X92979047Y-82383333D01*
X93074285Y-82335714D01*
X93264761Y-82335714D01*
X93360000Y-82383333D01*
X93836190Y-83002380D02*
X93836190Y-82335714D01*
X93836190Y-82002380D02*
X93788571Y-82050000D01*
X93836190Y-82097619D01*
X93883809Y-82050000D01*
X93836190Y-82002380D01*
X93836190Y-82097619D01*
X94264761Y-82954761D02*
X94360000Y-83002380D01*
X94550476Y-83002380D01*
X94645714Y-82954761D01*
X94693333Y-82859523D01*
X94693333Y-82811904D01*
X94645714Y-82716666D01*
X94550476Y-82669047D01*
X94407619Y-82669047D01*
X94312380Y-82621428D01*
X94264761Y-82526190D01*
X94264761Y-82478571D01*
X94312380Y-82383333D01*
X94407619Y-82335714D01*
X94550476Y-82335714D01*
X94645714Y-82383333D01*
X94979047Y-82335714D02*
X95360000Y-82335714D01*
X95121904Y-82002380D02*
X95121904Y-82859523D01*
X95169523Y-82954761D01*
X95264761Y-83002380D01*
X95360000Y-83002380D01*
X95455238Y-83097619D02*
X96217142Y-83097619D01*
X96455238Y-82335714D02*
X96455238Y-83335714D01*
X96455238Y-82383333D02*
X96550476Y-82335714D01*
X96740952Y-82335714D01*
X96836190Y-82383333D01*
X96883809Y-82430952D01*
X96931428Y-82526190D01*
X96931428Y-82811904D01*
X96883809Y-82907142D01*
X96836190Y-82954761D01*
X96740952Y-83002380D01*
X96550476Y-83002380D01*
X96455238Y-82954761D01*
X97740952Y-82954761D02*
X97645714Y-83002380D01*
X97455238Y-83002380D01*
X97359999Y-82954761D01*
X97312380Y-82859523D01*
X97312380Y-82478571D01*
X97359999Y-82383333D01*
X97455238Y-82335714D01*
X97645714Y-82335714D01*
X97740952Y-82383333D01*
X97788571Y-82478571D01*
X97788571Y-82573809D01*
X97312380Y-82669047D01*
X98645714Y-83002380D02*
X98645714Y-82002380D01*
X98645714Y-82954761D02*
X98550476Y-83002380D01*
X98359999Y-83002380D01*
X98264761Y-82954761D01*
X98217142Y-82907142D01*
X98169523Y-82811904D01*
X98169523Y-82526190D01*
X98217142Y-82430952D01*
X98264761Y-82383333D01*
X98359999Y-82335714D01*
X98550476Y-82335714D01*
X98645714Y-82383333D01*
X99550476Y-83002380D02*
X99550476Y-82478571D01*
X99502857Y-82383333D01*
X99407619Y-82335714D01*
X99217142Y-82335714D01*
X99121904Y-82383333D01*
X99550476Y-82954761D02*
X99455238Y-83002380D01*
X99217142Y-83002380D01*
X99121904Y-82954761D01*
X99074285Y-82859523D01*
X99074285Y-82764285D01*
X99121904Y-82669047D01*
X99217142Y-82621428D01*
X99455238Y-82621428D01*
X99550476Y-82573809D01*
X100169523Y-83002380D02*
X100074285Y-82954761D01*
X100026666Y-82859523D01*
X100026666Y-82002380D01*
X86074285Y-99464761D02*
X86217142Y-99512380D01*
X86455238Y-99512380D01*
X86550476Y-99464761D01*
X86598095Y-99417142D01*
X86645714Y-99321904D01*
X86645714Y-99226666D01*
X86598095Y-99131428D01*
X86550476Y-99083809D01*
X86455238Y-99036190D01*
X86264761Y-98988571D01*
X86169523Y-98940952D01*
X86121904Y-98893333D01*
X86074285Y-98798095D01*
X86074285Y-98702857D01*
X86121904Y-98607619D01*
X86169523Y-98560000D01*
X86264761Y-98512380D01*
X86502857Y-98512380D01*
X86645714Y-98560000D01*
X78454285Y-98512380D02*
X79025714Y-98512380D01*
X78740000Y-99512380D02*
X78740000Y-98512380D01*
X125468095Y-99512380D02*
X125468095Y-98512380D01*
X126039523Y-99512380D02*
X125610952Y-98940952D01*
X126039523Y-98512380D02*
X125468095Y-99083809D01*
X119396190Y-96448571D02*
X119729523Y-96448571D01*
X119872380Y-96972380D02*
X119396190Y-96972380D01*
X119396190Y-95972380D01*
X119872380Y-95972380D01*
X120300952Y-96972380D02*
X120300952Y-95972380D01*
X120872380Y-96972380D01*
X120872380Y-95972380D01*
X121300952Y-96686666D02*
X121777142Y-96686666D01*
X121205714Y-96972380D02*
X121539047Y-95972380D01*
X121872380Y-96972380D01*
X122539047Y-96448571D02*
X122681904Y-96496190D01*
X122729523Y-96543809D01*
X122777142Y-96639047D01*
X122777142Y-96781904D01*
X122729523Y-96877142D01*
X122681904Y-96924761D01*
X122586666Y-96972380D01*
X122205714Y-96972380D01*
X122205714Y-95972380D01*
X122539047Y-95972380D01*
X122634285Y-96020000D01*
X122681904Y-96067619D01*
X122729523Y-96162857D01*
X122729523Y-96258095D01*
X122681904Y-96353333D01*
X122634285Y-96400952D01*
X122539047Y-96448571D01*
X122205714Y-96448571D01*
X123681904Y-96972380D02*
X123205714Y-96972380D01*
X123205714Y-95972380D01*
X124015238Y-96448571D02*
X124348571Y-96448571D01*
X124491428Y-96972380D02*
X124015238Y-96972380D01*
X124015238Y-95972380D01*
X124491428Y-95972380D01*
X109990000Y-98531904D02*
X109942380Y-98627142D01*
X109942380Y-98770000D01*
X109990000Y-98912857D01*
X110085238Y-99008095D01*
X110180476Y-99055714D01*
X110370952Y-99103333D01*
X110513809Y-99103333D01*
X110704285Y-99055714D01*
X110799523Y-99008095D01*
X110894761Y-98912857D01*
X110942380Y-98770000D01*
X110942380Y-98674761D01*
X110894761Y-98531904D01*
X110847142Y-98484285D01*
X110513809Y-98484285D01*
X110513809Y-98674761D01*
X110942380Y-98055714D02*
X109942380Y-98055714D01*
X110942380Y-97484285D01*
X109942380Y-97484285D01*
X110942380Y-97008095D02*
X109942380Y-97008095D01*
X109942380Y-96770000D01*
X109990000Y-96627142D01*
X110085238Y-96531904D01*
X110180476Y-96484285D01*
X110370952Y-96436666D01*
X110513809Y-96436666D01*
X110704285Y-96484285D01*
X110799523Y-96531904D01*
X110894761Y-96627142D01*
X110942380Y-96770000D01*
X110942380Y-97008095D01*
X117871904Y-99226666D02*
X118348095Y-99226666D01*
X117776666Y-99512380D02*
X118110000Y-98512380D01*
X118443333Y-99512380D01*
X74050476Y-80462380D02*
X74050476Y-79462380D01*
X74383809Y-80176666D01*
X74717142Y-79462380D01*
X74717142Y-80462380D01*
X75621904Y-80462380D02*
X75621904Y-79938571D01*
X75574285Y-79843333D01*
X75479047Y-79795714D01*
X75288571Y-79795714D01*
X75193333Y-79843333D01*
X75621904Y-80414761D02*
X75526666Y-80462380D01*
X75288571Y-80462380D01*
X75193333Y-80414761D01*
X75145714Y-80319523D01*
X75145714Y-80224285D01*
X75193333Y-80129047D01*
X75288571Y-80081428D01*
X75526666Y-80081428D01*
X75621904Y-80033809D01*
X76002857Y-80462380D02*
X76526666Y-79795714D01*
X76002857Y-79795714D02*
X76526666Y-80462380D01*
X77669523Y-80462380D02*
X77669523Y-79462380D01*
X78050476Y-79462380D01*
X78145714Y-79510000D01*
X78193333Y-79557619D01*
X78240952Y-79652857D01*
X78240952Y-79795714D01*
X78193333Y-79890952D01*
X78145714Y-79938571D01*
X78050476Y-79986190D01*
X77669523Y-79986190D01*
X78669523Y-80462380D02*
X78669523Y-79795714D01*
X78669523Y-79986190D02*
X78717142Y-79890952D01*
X78764761Y-79843333D01*
X78860000Y-79795714D01*
X78955238Y-79795714D01*
X79431428Y-80462380D02*
X79336190Y-80414761D01*
X79288571Y-80367142D01*
X79240952Y-80271904D01*
X79240952Y-79986190D01*
X79288571Y-79890952D01*
X79336190Y-79843333D01*
X79431428Y-79795714D01*
X79574285Y-79795714D01*
X79669523Y-79843333D01*
X79717142Y-79890952D01*
X79764761Y-79986190D01*
X79764761Y-80271904D01*
X79717142Y-80367142D01*
X79669523Y-80414761D01*
X79574285Y-80462380D01*
X79431428Y-80462380D01*
X80145714Y-80414761D02*
X80240952Y-80462380D01*
X80431428Y-80462380D01*
X80526666Y-80414761D01*
X80574285Y-80319523D01*
X80574285Y-80271904D01*
X80526666Y-80176666D01*
X80431428Y-80129047D01*
X80288571Y-80129047D01*
X80193333Y-80081428D01*
X80145714Y-79986190D01*
X80145714Y-79938571D01*
X80193333Y-79843333D01*
X80288571Y-79795714D01*
X80431428Y-79795714D01*
X80526666Y-79843333D01*
X81002857Y-80462380D02*
X81002857Y-79462380D01*
X81098095Y-80081428D02*
X81383809Y-80462380D01*
X81383809Y-79795714D02*
X81002857Y-80176666D01*
X82240952Y-80462380D02*
X82240952Y-79938571D01*
X82193333Y-79843333D01*
X82098095Y-79795714D01*
X81907619Y-79795714D01*
X81812380Y-79843333D01*
X82240952Y-80414761D02*
X82145714Y-80462380D01*
X81907619Y-80462380D01*
X81812380Y-80414761D01*
X81764761Y-80319523D01*
X81764761Y-80224285D01*
X81812380Y-80129047D01*
X81907619Y-80081428D01*
X82145714Y-80081428D01*
X82240952Y-80033809D01*
X83145714Y-79795714D02*
X83145714Y-80462380D01*
X82717142Y-79795714D02*
X82717142Y-80319523D01*
X82764761Y-80414761D01*
X82860000Y-80462380D01*
X83002857Y-80462380D01*
X83098095Y-80414761D01*
X83145714Y-80367142D01*
X84002857Y-80414761D02*
X83907619Y-80462380D01*
X83717142Y-80462380D01*
X83621904Y-80414761D01*
X83574285Y-80319523D01*
X83574285Y-79938571D01*
X83621904Y-79843333D01*
X83717142Y-79795714D01*
X83907619Y-79795714D01*
X84002857Y-79843333D01*
X84050476Y-79938571D01*
X84050476Y-80033809D01*
X83574285Y-80129047D01*
X84479047Y-80462380D02*
X84479047Y-79795714D01*
X84479047Y-79986190D02*
X84526666Y-79890952D01*
X84574285Y-79843333D01*
X84669523Y-79795714D01*
X84764761Y-79795714D01*
X86526666Y-79795714D02*
X86764761Y-80462380D01*
X87002857Y-79795714D01*
X87574285Y-79462380D02*
X87669523Y-79462380D01*
X87764761Y-79510000D01*
X87812380Y-79557619D01*
X87860000Y-79652857D01*
X87907619Y-79843333D01*
X87907619Y-80081428D01*
X87860000Y-80271904D01*
X87812380Y-80367142D01*
X87764761Y-80414761D01*
X87669523Y-80462380D01*
X87574285Y-80462380D01*
X87479047Y-80414761D01*
X87431428Y-80367142D01*
X87383809Y-80271904D01*
X87336190Y-80081428D01*
X87336190Y-79843333D01*
X87383809Y-79652857D01*
X87431428Y-79557619D01*
X87479047Y-79510000D01*
X87574285Y-79462380D01*
X88336190Y-80367142D02*
X88383809Y-80414761D01*
X88336190Y-80462380D01*
X88288571Y-80414761D01*
X88336190Y-80367142D01*
X88336190Y-80462380D01*
X89336190Y-80462380D02*
X88764761Y-80462380D01*
X89050476Y-80462380D02*
X89050476Y-79462380D01*
X88955238Y-79605238D01*
X88860000Y-79700476D01*
X88764761Y-79748095D01*
X91240952Y-80414761D02*
X91383809Y-80462380D01*
X91621904Y-80462380D01*
X91717142Y-80414761D01*
X91764761Y-80367142D01*
X91812380Y-80271904D01*
X91812380Y-80176666D01*
X91764761Y-80081428D01*
X91717142Y-80033809D01*
X91621904Y-79986190D01*
X91431428Y-79938571D01*
X91336190Y-79890952D01*
X91288571Y-79843333D01*
X91240952Y-79748095D01*
X91240952Y-79652857D01*
X91288571Y-79557619D01*
X91336190Y-79510000D01*
X91431428Y-79462380D01*
X91669523Y-79462380D01*
X91812380Y-79510000D01*
X92621904Y-80414761D02*
X92526666Y-80462380D01*
X92336190Y-80462380D01*
X92240952Y-80414761D01*
X92193333Y-80319523D01*
X92193333Y-79938571D01*
X92240952Y-79843333D01*
X92336190Y-79795714D01*
X92526666Y-79795714D01*
X92621904Y-79843333D01*
X92669523Y-79938571D01*
X92669523Y-80033809D01*
X92193333Y-80129047D01*
X93098095Y-79795714D02*
X93098095Y-80795714D01*
X93098095Y-79843333D02*
X93193333Y-79795714D01*
X93383809Y-79795714D01*
X93479047Y-79843333D01*
X93526666Y-79890952D01*
X93574285Y-79986190D01*
X93574285Y-80271904D01*
X93526666Y-80367142D01*
X93479047Y-80414761D01*
X93383809Y-80462380D01*
X93193333Y-80462380D01*
X93098095Y-80414761D01*
X93860000Y-79795714D02*
X94240952Y-79795714D01*
X94002857Y-79462380D02*
X94002857Y-80319523D01*
X94050476Y-80414761D01*
X94145714Y-80462380D01*
X94240952Y-80462380D01*
X95288571Y-79557619D02*
X95336190Y-79510000D01*
X95431428Y-79462380D01*
X95669523Y-79462380D01*
X95764761Y-79510000D01*
X95812380Y-79557619D01*
X95860000Y-79652857D01*
X95860000Y-79748095D01*
X95812380Y-79890952D01*
X95240952Y-80462380D01*
X95860000Y-80462380D01*
X96479047Y-79462380D02*
X96574285Y-79462380D01*
X96669523Y-79510000D01*
X96717142Y-79557619D01*
X96764761Y-79652857D01*
X96812380Y-79843333D01*
X96812380Y-80081428D01*
X96764761Y-80271904D01*
X96717142Y-80367142D01*
X96669523Y-80414761D01*
X96574285Y-80462380D01*
X96479047Y-80462380D01*
X96383809Y-80414761D01*
X96336190Y-80367142D01*
X96288571Y-80271904D01*
X96240952Y-80081428D01*
X96240952Y-79843333D01*
X96288571Y-79652857D01*
X96336190Y-79557619D01*
X96383809Y-79510000D01*
X96479047Y-79462380D01*
X97193333Y-79557619D02*
X97240952Y-79510000D01*
X97336190Y-79462380D01*
X97574285Y-79462380D01*
X97669523Y-79510000D01*
X97717142Y-79557619D01*
X97764761Y-79652857D01*
X97764761Y-79748095D01*
X97717142Y-79890952D01*
X97145714Y-80462380D01*
X97764761Y-80462380D01*
X98145714Y-79557619D02*
X98193333Y-79510000D01*
X98288571Y-79462380D01*
X98526666Y-79462380D01*
X98621904Y-79510000D01*
X98669523Y-79557619D01*
X98717142Y-79652857D01*
X98717142Y-79748095D01*
X98669523Y-79890952D01*
X98098095Y-80462380D01*
X98717142Y-80462380D01*
X175712380Y-92409285D02*
X175712380Y-92980714D01*
X175712380Y-92695000D02*
X174712380Y-92695000D01*
X174855238Y-92790238D01*
X174950476Y-92885476D01*
X174998095Y-92980714D01*
X175021904Y-96686666D02*
X175498095Y-96686666D01*
X174926666Y-96972380D02*
X175260000Y-95972380D01*
X175593333Y-96972380D01*
X174998095Y-99512380D02*
X174998095Y-98512380D01*
X175569523Y-99512380D02*
X175140952Y-98940952D01*
X175569523Y-98512380D02*
X174998095Y-99083809D01*
X98774285Y-99464761D02*
X98917142Y-99512380D01*
X99155238Y-99512380D01*
X99250476Y-99464761D01*
X99298095Y-99417142D01*
X99345714Y-99321904D01*
X99345714Y-99226666D01*
X99298095Y-99131428D01*
X99250476Y-99083809D01*
X99155238Y-99036190D01*
X98964761Y-98988571D01*
X98869523Y-98940952D01*
X98821904Y-98893333D01*
X98774285Y-98798095D01*
X98774285Y-98702857D01*
X98821904Y-98607619D01*
X98869523Y-98560000D01*
X98964761Y-98512380D01*
X99202857Y-98512380D01*
X99345714Y-98560000D01*
X102941428Y-100932857D02*
X102941428Y-100170952D01*
X103322380Y-100551904D02*
X102560476Y-100551904D01*
X103322380Y-99170952D02*
X103322380Y-99742380D01*
X103322380Y-99456666D02*
X102322380Y-99456666D01*
X102465238Y-99551904D01*
X102560476Y-99647142D01*
X102608095Y-99742380D01*
X102417619Y-98790000D02*
X102370000Y-98742380D01*
X102322380Y-98647142D01*
X102322380Y-98409047D01*
X102370000Y-98313809D01*
X102417619Y-98266190D01*
X102512857Y-98218571D01*
X102608095Y-98218571D01*
X102750952Y-98266190D01*
X103322380Y-98837619D01*
X103322380Y-98218571D01*
X102322380Y-97932857D02*
X103322380Y-97599523D01*
X102322380Y-97266190D01*
X103322380Y-96170952D02*
X102322380Y-96170952D01*
X102322380Y-95932857D01*
X102370000Y-95790000D01*
X102465238Y-95694761D01*
X102560476Y-95647142D01*
X102750952Y-95599523D01*
X102893809Y-95599523D01*
X103084285Y-95647142D01*
X103179523Y-95694761D01*
X103274761Y-95790000D01*
X103322380Y-95932857D01*
X103322380Y-96170952D01*
X103227142Y-94599523D02*
X103274761Y-94647142D01*
X103322380Y-94790000D01*
X103322380Y-94885238D01*
X103274761Y-95028095D01*
X103179523Y-95123333D01*
X103084285Y-95170952D01*
X102893809Y-95218571D01*
X102750952Y-95218571D01*
X102560476Y-95170952D01*
X102465238Y-95123333D01*
X102370000Y-95028095D01*
X102322380Y-94885238D01*
X102322380Y-94790000D01*
X102370000Y-94647142D01*
X102417619Y-94599523D01*
X91154285Y-98512380D02*
X91725714Y-98512380D01*
X91440000Y-99512380D02*
X91440000Y-98512380D01*
%TO.C,R14*%
X125087142Y-93162380D02*
X124753809Y-92686190D01*
X124515714Y-93162380D02*
X124515714Y-92162380D01*
X124896666Y-92162380D01*
X124991904Y-92210000D01*
X125039523Y-92257619D01*
X125087142Y-92352857D01*
X125087142Y-92495714D01*
X125039523Y-92590952D01*
X124991904Y-92638571D01*
X124896666Y-92686190D01*
X124515714Y-92686190D01*
X126039523Y-93162380D02*
X125468095Y-93162380D01*
X125753809Y-93162380D02*
X125753809Y-92162380D01*
X125658571Y-92305238D01*
X125563333Y-92400476D01*
X125468095Y-92448095D01*
X126896666Y-92495714D02*
X126896666Y-93162380D01*
X126658571Y-92114761D02*
X126420476Y-92829047D01*
X127039523Y-92829047D01*
X124658571Y-90622380D02*
X124087142Y-90622380D01*
X124372857Y-90622380D02*
X124372857Y-89622380D01*
X124277619Y-89765238D01*
X124182380Y-89860476D01*
X124087142Y-89908095D01*
X125277619Y-89622380D02*
X125372857Y-89622380D01*
X125468095Y-89670000D01*
X125515714Y-89717619D01*
X125563333Y-89812857D01*
X125610952Y-90003333D01*
X125610952Y-90241428D01*
X125563333Y-90431904D01*
X125515714Y-90527142D01*
X125468095Y-90574761D01*
X125372857Y-90622380D01*
X125277619Y-90622380D01*
X125182380Y-90574761D01*
X125134761Y-90527142D01*
X125087142Y-90431904D01*
X125039523Y-90241428D01*
X125039523Y-90003333D01*
X125087142Y-89812857D01*
X125134761Y-89717619D01*
X125182380Y-89670000D01*
X125277619Y-89622380D01*
X126230000Y-89622380D02*
X126325238Y-89622380D01*
X126420476Y-89670000D01*
X126468095Y-89717619D01*
X126515714Y-89812857D01*
X126563333Y-90003333D01*
X126563333Y-90241428D01*
X126515714Y-90431904D01*
X126468095Y-90527142D01*
X126420476Y-90574761D01*
X126325238Y-90622380D01*
X126230000Y-90622380D01*
X126134761Y-90574761D01*
X126087142Y-90527142D01*
X126039523Y-90431904D01*
X125991904Y-90241428D01*
X125991904Y-90003333D01*
X126039523Y-89812857D01*
X126087142Y-89717619D01*
X126134761Y-89670000D01*
X126230000Y-89622380D01*
X126991904Y-90622380D02*
X126991904Y-89622380D01*
X127087142Y-90241428D02*
X127372857Y-90622380D01*
X127372857Y-89955714D02*
X126991904Y-90336666D01*
%TO.C,R12*%
X132707142Y-72842380D02*
X132373809Y-72366190D01*
X132135714Y-72842380D02*
X132135714Y-71842380D01*
X132516666Y-71842380D01*
X132611904Y-71890000D01*
X132659523Y-71937619D01*
X132707142Y-72032857D01*
X132707142Y-72175714D01*
X132659523Y-72270952D01*
X132611904Y-72318571D01*
X132516666Y-72366190D01*
X132135714Y-72366190D01*
X133659523Y-72842380D02*
X133088095Y-72842380D01*
X133373809Y-72842380D02*
X133373809Y-71842380D01*
X133278571Y-71985238D01*
X133183333Y-72080476D01*
X133088095Y-72128095D01*
X134040476Y-71937619D02*
X134088095Y-71890000D01*
X134183333Y-71842380D01*
X134421428Y-71842380D01*
X134516666Y-71890000D01*
X134564285Y-71937619D01*
X134611904Y-72032857D01*
X134611904Y-72128095D01*
X134564285Y-72270952D01*
X133992857Y-72842380D01*
X134611904Y-72842380D01*
X139898571Y-72842380D02*
X139327142Y-72842380D01*
X139612857Y-72842380D02*
X139612857Y-71842380D01*
X139517619Y-71985238D01*
X139422380Y-72080476D01*
X139327142Y-72128095D01*
X140517619Y-71842380D02*
X140612857Y-71842380D01*
X140708095Y-71890000D01*
X140755714Y-71937619D01*
X140803333Y-72032857D01*
X140850952Y-72223333D01*
X140850952Y-72461428D01*
X140803333Y-72651904D01*
X140755714Y-72747142D01*
X140708095Y-72794761D01*
X140612857Y-72842380D01*
X140517619Y-72842380D01*
X140422380Y-72794761D01*
X140374761Y-72747142D01*
X140327142Y-72651904D01*
X140279523Y-72461428D01*
X140279523Y-72223333D01*
X140327142Y-72032857D01*
X140374761Y-71937619D01*
X140422380Y-71890000D01*
X140517619Y-71842380D01*
X141470000Y-71842380D02*
X141565238Y-71842380D01*
X141660476Y-71890000D01*
X141708095Y-71937619D01*
X141755714Y-72032857D01*
X141803333Y-72223333D01*
X141803333Y-72461428D01*
X141755714Y-72651904D01*
X141708095Y-72747142D01*
X141660476Y-72794761D01*
X141565238Y-72842380D01*
X141470000Y-72842380D01*
X141374761Y-72794761D01*
X141327142Y-72747142D01*
X141279523Y-72651904D01*
X141231904Y-72461428D01*
X141231904Y-72223333D01*
X141279523Y-72032857D01*
X141327142Y-71937619D01*
X141374761Y-71890000D01*
X141470000Y-71842380D01*
X142231904Y-72842380D02*
X142231904Y-71842380D01*
X142327142Y-72461428D02*
X142612857Y-72842380D01*
X142612857Y-72175714D02*
X142231904Y-72556666D01*
%TO.C,D2*%
X174442380Y-101068095D02*
X173442380Y-101068095D01*
X173442380Y-100830000D01*
X173490000Y-100687142D01*
X173585238Y-100591904D01*
X173680476Y-100544285D01*
X173870952Y-100496666D01*
X174013809Y-100496666D01*
X174204285Y-100544285D01*
X174299523Y-100591904D01*
X174394761Y-100687142D01*
X174442380Y-100830000D01*
X174442380Y-101068095D01*
X173537619Y-100115714D02*
X173490000Y-100068095D01*
X173442380Y-99972857D01*
X173442380Y-99734761D01*
X173490000Y-99639523D01*
X173537619Y-99591904D01*
X173632857Y-99544285D01*
X173728095Y-99544285D01*
X173870952Y-99591904D01*
X174442380Y-100163333D01*
X174442380Y-99544285D01*
%TO.C,R8*%
X150963333Y-95702380D02*
X150630000Y-95226190D01*
X150391904Y-95702380D02*
X150391904Y-94702380D01*
X150772857Y-94702380D01*
X150868095Y-94750000D01*
X150915714Y-94797619D01*
X150963333Y-94892857D01*
X150963333Y-95035714D01*
X150915714Y-95130952D01*
X150868095Y-95178571D01*
X150772857Y-95226190D01*
X150391904Y-95226190D01*
X151534761Y-95130952D02*
X151439523Y-95083333D01*
X151391904Y-95035714D01*
X151344285Y-94940476D01*
X151344285Y-94892857D01*
X151391904Y-94797619D01*
X151439523Y-94750000D01*
X151534761Y-94702380D01*
X151725238Y-94702380D01*
X151820476Y-94750000D01*
X151868095Y-94797619D01*
X151915714Y-94892857D01*
X151915714Y-94940476D01*
X151868095Y-95035714D01*
X151820476Y-95083333D01*
X151725238Y-95130952D01*
X151534761Y-95130952D01*
X151439523Y-95178571D01*
X151391904Y-95226190D01*
X151344285Y-95321428D01*
X151344285Y-95511904D01*
X151391904Y-95607142D01*
X151439523Y-95654761D01*
X151534761Y-95702380D01*
X151725238Y-95702380D01*
X151820476Y-95654761D01*
X151868095Y-95607142D01*
X151915714Y-95511904D01*
X151915714Y-95321428D01*
X151868095Y-95226190D01*
X151820476Y-95178571D01*
X151725238Y-95130952D01*
X150058571Y-93162380D02*
X149487142Y-93162380D01*
X149772857Y-93162380D02*
X149772857Y-92162380D01*
X149677619Y-92305238D01*
X149582380Y-92400476D01*
X149487142Y-92448095D01*
X150677619Y-92162380D02*
X150772857Y-92162380D01*
X150868095Y-92210000D01*
X150915714Y-92257619D01*
X150963333Y-92352857D01*
X151010952Y-92543333D01*
X151010952Y-92781428D01*
X150963333Y-92971904D01*
X150915714Y-93067142D01*
X150868095Y-93114761D01*
X150772857Y-93162380D01*
X150677619Y-93162380D01*
X150582380Y-93114761D01*
X150534761Y-93067142D01*
X150487142Y-92971904D01*
X150439523Y-92781428D01*
X150439523Y-92543333D01*
X150487142Y-92352857D01*
X150534761Y-92257619D01*
X150582380Y-92210000D01*
X150677619Y-92162380D01*
X151630000Y-92162380D02*
X151725238Y-92162380D01*
X151820476Y-92210000D01*
X151868095Y-92257619D01*
X151915714Y-92352857D01*
X151963333Y-92543333D01*
X151963333Y-92781428D01*
X151915714Y-92971904D01*
X151868095Y-93067142D01*
X151820476Y-93114761D01*
X151725238Y-93162380D01*
X151630000Y-93162380D01*
X151534761Y-93114761D01*
X151487142Y-93067142D01*
X151439523Y-92971904D01*
X151391904Y-92781428D01*
X151391904Y-92543333D01*
X151439523Y-92352857D01*
X151487142Y-92257619D01*
X151534761Y-92210000D01*
X151630000Y-92162380D01*
X152391904Y-93162380D02*
X152391904Y-92162380D01*
X152487142Y-92781428D02*
X152772857Y-93162380D01*
X152772857Y-92495714D02*
X152391904Y-92876666D01*
%TO.C,J2*%
X94916666Y-94067380D02*
X94916666Y-94781666D01*
X94869047Y-94924523D01*
X94773809Y-95019761D01*
X94630952Y-95067380D01*
X94535714Y-95067380D01*
X95345238Y-94162619D02*
X95392857Y-94115000D01*
X95488095Y-94067380D01*
X95726190Y-94067380D01*
X95821428Y-94115000D01*
X95869047Y-94162619D01*
X95916666Y-94257857D01*
X95916666Y-94353095D01*
X95869047Y-94495952D01*
X95297619Y-95067380D01*
X95916666Y-95067380D01*
X92845238Y-95972380D02*
X93035714Y-95972380D01*
X93130952Y-96020000D01*
X93226190Y-96115238D01*
X93273809Y-96305714D01*
X93273809Y-96639047D01*
X93226190Y-96829523D01*
X93130952Y-96924761D01*
X93035714Y-96972380D01*
X92845238Y-96972380D01*
X92750000Y-96924761D01*
X92654761Y-96829523D01*
X92607142Y-96639047D01*
X92607142Y-96305714D01*
X92654761Y-96115238D01*
X92750000Y-96020000D01*
X92845238Y-95972380D01*
X93702380Y-95972380D02*
X93702380Y-96781904D01*
X93750000Y-96877142D01*
X93797619Y-96924761D01*
X93892857Y-96972380D01*
X94083333Y-96972380D01*
X94178571Y-96924761D01*
X94226190Y-96877142D01*
X94273809Y-96781904D01*
X94273809Y-95972380D01*
X94607142Y-95972380D02*
X95178571Y-95972380D01*
X94892857Y-96972380D02*
X94892857Y-95972380D01*
X95511904Y-96972380D02*
X95511904Y-95972380D01*
X95892857Y-95972380D01*
X95988095Y-96020000D01*
X96035714Y-96067619D01*
X96083333Y-96162857D01*
X96083333Y-96305714D01*
X96035714Y-96400952D01*
X95988095Y-96448571D01*
X95892857Y-96496190D01*
X95511904Y-96496190D01*
X96511904Y-95972380D02*
X96511904Y-96781904D01*
X96559523Y-96877142D01*
X96607142Y-96924761D01*
X96702380Y-96972380D01*
X96892857Y-96972380D01*
X96988095Y-96924761D01*
X97035714Y-96877142D01*
X97083333Y-96781904D01*
X97083333Y-95972380D01*
X97416666Y-95972380D02*
X97988095Y-95972380D01*
X97702380Y-96972380D02*
X97702380Y-95972380D01*
%TO.C,C4*%
X133183333Y-68302142D02*
X133135714Y-68349761D01*
X132992857Y-68397380D01*
X132897619Y-68397380D01*
X132754761Y-68349761D01*
X132659523Y-68254523D01*
X132611904Y-68159285D01*
X132564285Y-67968809D01*
X132564285Y-67825952D01*
X132611904Y-67635476D01*
X132659523Y-67540238D01*
X132754761Y-67445000D01*
X132897619Y-67397380D01*
X132992857Y-67397380D01*
X133135714Y-67445000D01*
X133183333Y-67492619D01*
X134040476Y-67730714D02*
X134040476Y-68397380D01*
X133802380Y-67349761D02*
X133564285Y-68064047D01*
X134183333Y-68064047D01*
%TO.C,C9*%
X120483333Y-80367142D02*
X120435714Y-80414761D01*
X120292857Y-80462380D01*
X120197619Y-80462380D01*
X120054761Y-80414761D01*
X119959523Y-80319523D01*
X119911904Y-80224285D01*
X119864285Y-80033809D01*
X119864285Y-79890952D01*
X119911904Y-79700476D01*
X119959523Y-79605238D01*
X120054761Y-79510000D01*
X120197619Y-79462380D01*
X120292857Y-79462380D01*
X120435714Y-79510000D01*
X120483333Y-79557619D01*
X120959523Y-80462380D02*
X121150000Y-80462380D01*
X121245238Y-80414761D01*
X121292857Y-80367142D01*
X121388095Y-80224285D01*
X121435714Y-80033809D01*
X121435714Y-79652857D01*
X121388095Y-79557619D01*
X121340476Y-79510000D01*
X121245238Y-79462380D01*
X121054761Y-79462380D01*
X120959523Y-79510000D01*
X120911904Y-79557619D01*
X120864285Y-79652857D01*
X120864285Y-79890952D01*
X120911904Y-79986190D01*
X120959523Y-80033809D01*
X121054761Y-80081428D01*
X121245238Y-80081428D01*
X121340476Y-80033809D01*
X121388095Y-79986190D01*
X121435714Y-79890952D01*
X119578571Y-88082380D02*
X119007142Y-88082380D01*
X119292857Y-88082380D02*
X119292857Y-87082380D01*
X119197619Y-87225238D01*
X119102380Y-87320476D01*
X119007142Y-87368095D01*
X120197619Y-87082380D02*
X120292857Y-87082380D01*
X120388095Y-87130000D01*
X120435714Y-87177619D01*
X120483333Y-87272857D01*
X120530952Y-87463333D01*
X120530952Y-87701428D01*
X120483333Y-87891904D01*
X120435714Y-87987142D01*
X120388095Y-88034761D01*
X120292857Y-88082380D01*
X120197619Y-88082380D01*
X120102380Y-88034761D01*
X120054761Y-87987142D01*
X120007142Y-87891904D01*
X119959523Y-87701428D01*
X119959523Y-87463333D01*
X120007142Y-87272857D01*
X120054761Y-87177619D01*
X120102380Y-87130000D01*
X120197619Y-87082380D01*
X121388095Y-87415714D02*
X121388095Y-88082380D01*
X120959523Y-87415714D02*
X120959523Y-87939523D01*
X121007142Y-88034761D01*
X121102380Y-88082380D01*
X121245238Y-88082380D01*
X121340476Y-88034761D01*
X121388095Y-87987142D01*
X122197619Y-87558571D02*
X121864285Y-87558571D01*
X121864285Y-88082380D02*
X121864285Y-87082380D01*
X122340476Y-87082380D01*
%TO.C,C8*%
X128108333Y-81012142D02*
X128060714Y-81059761D01*
X127917857Y-81107380D01*
X127822619Y-81107380D01*
X127679761Y-81059761D01*
X127584523Y-80964523D01*
X127536904Y-80869285D01*
X127489285Y-80678809D01*
X127489285Y-80535952D01*
X127536904Y-80345476D01*
X127584523Y-80250238D01*
X127679761Y-80155000D01*
X127822619Y-80107380D01*
X127917857Y-80107380D01*
X128060714Y-80155000D01*
X128108333Y-80202619D01*
X128679761Y-80535952D02*
X128584523Y-80488333D01*
X128536904Y-80440714D01*
X128489285Y-80345476D01*
X128489285Y-80297857D01*
X128536904Y-80202619D01*
X128584523Y-80155000D01*
X128679761Y-80107380D01*
X128870238Y-80107380D01*
X128965476Y-80155000D01*
X129013095Y-80202619D01*
X129060714Y-80297857D01*
X129060714Y-80345476D01*
X129013095Y-80440714D01*
X128965476Y-80488333D01*
X128870238Y-80535952D01*
X128679761Y-80535952D01*
X128584523Y-80583571D01*
X128536904Y-80631190D01*
X128489285Y-80726428D01*
X128489285Y-80916904D01*
X128536904Y-81012142D01*
X128584523Y-81059761D01*
X128679761Y-81107380D01*
X128870238Y-81107380D01*
X128965476Y-81059761D01*
X129013095Y-81012142D01*
X129060714Y-80916904D01*
X129060714Y-80726428D01*
X129013095Y-80631190D01*
X128965476Y-80583571D01*
X128870238Y-80535952D01*
X127679761Y-83012380D02*
X127108333Y-83012380D01*
X127394047Y-83012380D02*
X127394047Y-82012380D01*
X127298809Y-82155238D01*
X127203571Y-82250476D01*
X127108333Y-82298095D01*
X128536904Y-82345714D02*
X128536904Y-83012380D01*
X128108333Y-82345714D02*
X128108333Y-82869523D01*
X128155952Y-82964761D01*
X128251190Y-83012380D01*
X128394047Y-83012380D01*
X128489285Y-82964761D01*
X128536904Y-82917142D01*
X129346428Y-82488571D02*
X129013095Y-82488571D01*
X129013095Y-83012380D02*
X129013095Y-82012380D01*
X129489285Y-82012380D01*
%TO.C,Q1*%
X152939761Y-98337619D02*
X152844523Y-98290000D01*
X152749285Y-98194761D01*
X152606428Y-98051904D01*
X152511190Y-98004285D01*
X152415952Y-98004285D01*
X152463571Y-98242380D02*
X152368333Y-98194761D01*
X152273095Y-98099523D01*
X152225476Y-97909047D01*
X152225476Y-97575714D01*
X152273095Y-97385238D01*
X152368333Y-97290000D01*
X152463571Y-97242380D01*
X152654047Y-97242380D01*
X152749285Y-97290000D01*
X152844523Y-97385238D01*
X152892142Y-97575714D01*
X152892142Y-97909047D01*
X152844523Y-98099523D01*
X152749285Y-98194761D01*
X152654047Y-98242380D01*
X152463571Y-98242380D01*
X153844523Y-98242380D02*
X153273095Y-98242380D01*
X153558809Y-98242380D02*
X153558809Y-97242380D01*
X153463571Y-97385238D01*
X153368333Y-97480476D01*
X153273095Y-97528095D01*
X153495714Y-100512619D02*
X153543333Y-100465000D01*
X153638571Y-100417380D01*
X153876666Y-100417380D01*
X153971904Y-100465000D01*
X154019523Y-100512619D01*
X154067142Y-100607857D01*
X154067142Y-100703095D01*
X154019523Y-100845952D01*
X153448095Y-101417380D01*
X154067142Y-101417380D01*
X154495714Y-101417380D02*
X154495714Y-100417380D01*
X155067142Y-101417380D01*
X155067142Y-100417380D01*
X155448095Y-100417380D02*
X156067142Y-100417380D01*
X155733809Y-100798333D01*
X155876666Y-100798333D01*
X155971904Y-100845952D01*
X156019523Y-100893571D01*
X156067142Y-100988809D01*
X156067142Y-101226904D01*
X156019523Y-101322142D01*
X155971904Y-101369761D01*
X155876666Y-101417380D01*
X155590952Y-101417380D01*
X155495714Y-101369761D01*
X155448095Y-101322142D01*
X156543333Y-101417380D02*
X156733809Y-101417380D01*
X156829047Y-101369761D01*
X156876666Y-101322142D01*
X156971904Y-101179285D01*
X157019523Y-100988809D01*
X157019523Y-100607857D01*
X156971904Y-100512619D01*
X156924285Y-100465000D01*
X156829047Y-100417380D01*
X156638571Y-100417380D01*
X156543333Y-100465000D01*
X156495714Y-100512619D01*
X156448095Y-100607857D01*
X156448095Y-100845952D01*
X156495714Y-100941190D01*
X156543333Y-100988809D01*
X156638571Y-101036428D01*
X156829047Y-101036428D01*
X156924285Y-100988809D01*
X156971904Y-100941190D01*
X157019523Y-100845952D01*
X157638571Y-100417380D02*
X157733809Y-100417380D01*
X157829047Y-100465000D01*
X157876666Y-100512619D01*
X157924285Y-100607857D01*
X157971904Y-100798333D01*
X157971904Y-101036428D01*
X157924285Y-101226904D01*
X157876666Y-101322142D01*
X157829047Y-101369761D01*
X157733809Y-101417380D01*
X157638571Y-101417380D01*
X157543333Y-101369761D01*
X157495714Y-101322142D01*
X157448095Y-101226904D01*
X157400476Y-101036428D01*
X157400476Y-100798333D01*
X157448095Y-100607857D01*
X157495714Y-100512619D01*
X157543333Y-100465000D01*
X157638571Y-100417380D01*
X158829047Y-100750714D02*
X158829047Y-101417380D01*
X158590952Y-100369761D02*
X158352857Y-101084047D01*
X158971904Y-101084047D01*
%TO.C,C5*%
X155852023Y-81012142D02*
X155804404Y-81059761D01*
X155661547Y-81107380D01*
X155566309Y-81107380D01*
X155423452Y-81059761D01*
X155328214Y-80964523D01*
X155280595Y-80869285D01*
X155232976Y-80678809D01*
X155232976Y-80535952D01*
X155280595Y-80345476D01*
X155328214Y-80250238D01*
X155423452Y-80155000D01*
X155566309Y-80107380D01*
X155661547Y-80107380D01*
X155804404Y-80155000D01*
X155852023Y-80202619D01*
X156756785Y-80107380D02*
X156280595Y-80107380D01*
X156232976Y-80583571D01*
X156280595Y-80535952D01*
X156375833Y-80488333D01*
X156613928Y-80488333D01*
X156709166Y-80535952D01*
X156756785Y-80583571D01*
X156804404Y-80678809D01*
X156804404Y-80916904D01*
X156756785Y-81012142D01*
X156709166Y-81059761D01*
X156613928Y-81107380D01*
X156375833Y-81107380D01*
X156280595Y-81059761D01*
X156232976Y-81012142D01*
X155804404Y-83012380D02*
X155232976Y-83012380D01*
X155518690Y-83012380D02*
X155518690Y-82012380D01*
X155423452Y-82155238D01*
X155328214Y-82250476D01*
X155232976Y-82298095D01*
X156661547Y-82012380D02*
X156471071Y-82012380D01*
X156375833Y-82060000D01*
X156328214Y-82107619D01*
X156232976Y-82250476D01*
X156185357Y-82440952D01*
X156185357Y-82821904D01*
X156232976Y-82917142D01*
X156280595Y-82964761D01*
X156375833Y-83012380D01*
X156566309Y-83012380D01*
X156661547Y-82964761D01*
X156709166Y-82917142D01*
X156756785Y-82821904D01*
X156756785Y-82583809D01*
X156709166Y-82488571D01*
X156661547Y-82440952D01*
X156566309Y-82393333D01*
X156375833Y-82393333D01*
X156280595Y-82440952D01*
X156232976Y-82488571D01*
X156185357Y-82583809D01*
X157185357Y-82345714D02*
X157185357Y-83345714D01*
X157185357Y-82393333D02*
X157280595Y-82345714D01*
X157471071Y-82345714D01*
X157566309Y-82393333D01*
X157613928Y-82440952D01*
X157661547Y-82536190D01*
X157661547Y-82821904D01*
X157613928Y-82917142D01*
X157566309Y-82964761D01*
X157471071Y-83012380D01*
X157280595Y-83012380D01*
X157185357Y-82964761D01*
X158423452Y-82488571D02*
X158090119Y-82488571D01*
X158090119Y-83012380D02*
X158090119Y-82012380D01*
X158566309Y-82012380D01*
%TO.C,U1*%
X174712380Y-87121904D02*
X175521904Y-87121904D01*
X175617142Y-87074285D01*
X175664761Y-87026666D01*
X175712380Y-86931428D01*
X175712380Y-86740952D01*
X175664761Y-86645714D01*
X175617142Y-86598095D01*
X175521904Y-86550476D01*
X174712380Y-86550476D01*
X175712380Y-85550476D02*
X175712380Y-86121904D01*
X175712380Y-85836190D02*
X174712380Y-85836190D01*
X174855238Y-85931428D01*
X174950476Y-86026666D01*
X174998095Y-86121904D01*
X175712380Y-82851428D02*
X175712380Y-83422857D01*
X175712380Y-83137142D02*
X174712380Y-83137142D01*
X174855238Y-83232380D01*
X174950476Y-83327619D01*
X174998095Y-83422857D01*
X174807619Y-82470476D02*
X174760000Y-82422857D01*
X174712380Y-82327619D01*
X174712380Y-82089523D01*
X174760000Y-81994285D01*
X174807619Y-81946666D01*
X174902857Y-81899047D01*
X174998095Y-81899047D01*
X175140952Y-81946666D01*
X175712380Y-82518095D01*
X175712380Y-81899047D01*
X175426666Y-81518095D02*
X175426666Y-81041904D01*
X175712380Y-81613333D02*
X174712380Y-81280000D01*
X175712380Y-80946666D01*
X174712380Y-80708571D02*
X175712380Y-80041904D01*
X174712380Y-80041904D02*
X175712380Y-80708571D01*
X174712380Y-79756190D02*
X174712380Y-79089523D01*
X175712380Y-79518095D01*
%TO.C,C6*%
X156043333Y-70599542D02*
X155995714Y-70647161D01*
X155852857Y-70694780D01*
X155757619Y-70694780D01*
X155614761Y-70647161D01*
X155519523Y-70551923D01*
X155471904Y-70456685D01*
X155424285Y-70266209D01*
X155424285Y-70123352D01*
X155471904Y-69932876D01*
X155519523Y-69837638D01*
X155614761Y-69742400D01*
X155757619Y-69694780D01*
X155852857Y-69694780D01*
X155995714Y-69742400D01*
X156043333Y-69790019D01*
X156900476Y-69694780D02*
X156710000Y-69694780D01*
X156614761Y-69742400D01*
X156567142Y-69790019D01*
X156471904Y-69932876D01*
X156424285Y-70123352D01*
X156424285Y-70504304D01*
X156471904Y-70599542D01*
X156519523Y-70647161D01*
X156614761Y-70694780D01*
X156805238Y-70694780D01*
X156900476Y-70647161D01*
X156948095Y-70599542D01*
X156995714Y-70504304D01*
X156995714Y-70266209D01*
X156948095Y-70170971D01*
X156900476Y-70123352D01*
X156805238Y-70075733D01*
X156614761Y-70075733D01*
X156519523Y-70123352D01*
X156471904Y-70170971D01*
X156424285Y-70266209D01*
X159240119Y-71572380D02*
X158668690Y-71572380D01*
X158954404Y-71572380D02*
X158954404Y-70572380D01*
X158859166Y-70715238D01*
X158763928Y-70810476D01*
X158668690Y-70858095D01*
X160097261Y-70905714D02*
X160097261Y-71572380D01*
X159668690Y-70905714D02*
X159668690Y-71429523D01*
X159716309Y-71524761D01*
X159811547Y-71572380D01*
X159954404Y-71572380D01*
X160049642Y-71524761D01*
X160097261Y-71477142D01*
X160906785Y-71048571D02*
X160573452Y-71048571D01*
X160573452Y-71572380D02*
X160573452Y-70572380D01*
X161049642Y-70572380D01*
%TO.C,RV3*%
X163012380Y-66635238D02*
X162536190Y-66968571D01*
X163012380Y-67206666D02*
X162012380Y-67206666D01*
X162012380Y-66825714D01*
X162060000Y-66730476D01*
X162107619Y-66682857D01*
X162202857Y-66635238D01*
X162345714Y-66635238D01*
X162440952Y-66682857D01*
X162488571Y-66730476D01*
X162536190Y-66825714D01*
X162536190Y-67206666D01*
X162012380Y-66349523D02*
X163012380Y-66016190D01*
X162012380Y-65682857D01*
X162012380Y-65444761D02*
X162012380Y-64825714D01*
X162393333Y-65159047D01*
X162393333Y-65016190D01*
X162440952Y-64920952D01*
X162488571Y-64873333D01*
X162583809Y-64825714D01*
X162821904Y-64825714D01*
X162917142Y-64873333D01*
X162964761Y-64920952D01*
X163012380Y-65016190D01*
X163012380Y-65301904D01*
X162964761Y-65397142D01*
X162917142Y-65444761D01*
X169839047Y-69032380D02*
X169267619Y-69032380D01*
X169553333Y-69032380D02*
X169553333Y-68032380D01*
X169458095Y-68175238D01*
X169362857Y-68270476D01*
X169267619Y-68318095D01*
X170458095Y-68032380D02*
X170553333Y-68032380D01*
X170648571Y-68080000D01*
X170696190Y-68127619D01*
X170743809Y-68222857D01*
X170791428Y-68413333D01*
X170791428Y-68651428D01*
X170743809Y-68841904D01*
X170696190Y-68937142D01*
X170648571Y-68984761D01*
X170553333Y-69032380D01*
X170458095Y-69032380D01*
X170362857Y-68984761D01*
X170315238Y-68937142D01*
X170267619Y-68841904D01*
X170220000Y-68651428D01*
X170220000Y-68413333D01*
X170267619Y-68222857D01*
X170315238Y-68127619D01*
X170362857Y-68080000D01*
X170458095Y-68032380D01*
X171410476Y-68032380D02*
X171505714Y-68032380D01*
X171600952Y-68080000D01*
X171648571Y-68127619D01*
X171696190Y-68222857D01*
X171743809Y-68413333D01*
X171743809Y-68651428D01*
X171696190Y-68841904D01*
X171648571Y-68937142D01*
X171600952Y-68984761D01*
X171505714Y-69032380D01*
X171410476Y-69032380D01*
X171315238Y-68984761D01*
X171267619Y-68937142D01*
X171220000Y-68841904D01*
X171172380Y-68651428D01*
X171172380Y-68413333D01*
X171220000Y-68222857D01*
X171267619Y-68127619D01*
X171315238Y-68080000D01*
X171410476Y-68032380D01*
X172172380Y-69032380D02*
X172172380Y-68032380D01*
X172267619Y-68651428D02*
X172553333Y-69032380D01*
X172553333Y-68365714D02*
X172172380Y-68746666D01*
X174220000Y-69032380D02*
X173743809Y-69032380D01*
X173743809Y-68032380D01*
X174743809Y-68032380D02*
X174934285Y-68032380D01*
X175029523Y-68080000D01*
X175124761Y-68175238D01*
X175172380Y-68365714D01*
X175172380Y-68699047D01*
X175124761Y-68889523D01*
X175029523Y-68984761D01*
X174934285Y-69032380D01*
X174743809Y-69032380D01*
X174648571Y-68984761D01*
X174553333Y-68889523D01*
X174505714Y-68699047D01*
X174505714Y-68365714D01*
X174553333Y-68175238D01*
X174648571Y-68080000D01*
X174743809Y-68032380D01*
X176124761Y-68080000D02*
X176029523Y-68032380D01*
X175886666Y-68032380D01*
X175743809Y-68080000D01*
X175648571Y-68175238D01*
X175600952Y-68270476D01*
X175553333Y-68460952D01*
X175553333Y-68603809D01*
X175600952Y-68794285D01*
X175648571Y-68889523D01*
X175743809Y-68984761D01*
X175886666Y-69032380D01*
X175981904Y-69032380D01*
X176124761Y-68984761D01*
X176172380Y-68937142D01*
X176172380Y-68603809D01*
X175981904Y-68603809D01*
X169910476Y-70064380D02*
X170243809Y-71064380D01*
X170577142Y-70064380D01*
X171100952Y-70064380D02*
X171291428Y-70064380D01*
X171386666Y-70112000D01*
X171481904Y-70207238D01*
X171529523Y-70397714D01*
X171529523Y-70731047D01*
X171481904Y-70921523D01*
X171386666Y-71016761D01*
X171291428Y-71064380D01*
X171100952Y-71064380D01*
X171005714Y-71016761D01*
X170910476Y-70921523D01*
X170862857Y-70731047D01*
X170862857Y-70397714D01*
X170910476Y-70207238D01*
X171005714Y-70112000D01*
X171100952Y-70064380D01*
X172434285Y-71064380D02*
X171958095Y-71064380D01*
X171958095Y-70064380D01*
X172767619Y-70064380D02*
X172767619Y-70873904D01*
X172815238Y-70969142D01*
X172862857Y-71016761D01*
X172958095Y-71064380D01*
X173148571Y-71064380D01*
X173243809Y-71016761D01*
X173291428Y-70969142D01*
X173339047Y-70873904D01*
X173339047Y-70064380D01*
X173815238Y-71064380D02*
X173815238Y-70064380D01*
X174148571Y-70778666D01*
X174481904Y-70064380D01*
X174481904Y-71064380D01*
X174958095Y-70540571D02*
X175291428Y-70540571D01*
X175434285Y-71064380D02*
X174958095Y-71064380D01*
X174958095Y-70064380D01*
X175434285Y-70064380D01*
%TO.C,C2*%
X170013333Y-83137142D02*
X169965714Y-83184761D01*
X169822857Y-83232380D01*
X169727619Y-83232380D01*
X169584761Y-83184761D01*
X169489523Y-83089523D01*
X169441904Y-82994285D01*
X169394285Y-82803809D01*
X169394285Y-82660952D01*
X169441904Y-82470476D01*
X169489523Y-82375238D01*
X169584761Y-82280000D01*
X169727619Y-82232380D01*
X169822857Y-82232380D01*
X169965714Y-82280000D01*
X170013333Y-82327619D01*
X170394285Y-82327619D02*
X170441904Y-82280000D01*
X170537142Y-82232380D01*
X170775238Y-82232380D01*
X170870476Y-82280000D01*
X170918095Y-82327619D01*
X170965714Y-82422857D01*
X170965714Y-82518095D01*
X170918095Y-82660952D01*
X170346666Y-83232380D01*
X170965714Y-83232380D01*
D11*
X172548571Y-85983333D02*
X173081904Y-85983333D01*
X172243809Y-86173809D02*
X172815238Y-86364285D01*
X172815238Y-85869047D01*
X172281904Y-85640476D02*
X172281904Y-85107142D01*
X173081904Y-85450000D01*
X172548571Y-84802380D02*
X173081904Y-84802380D01*
X172624761Y-84802380D02*
X172586666Y-84764285D01*
X172548571Y-84688095D01*
X172548571Y-84573809D01*
X172586666Y-84497619D01*
X172662857Y-84459523D01*
X173081904Y-84459523D01*
X172662857Y-83811904D02*
X172662857Y-84078571D01*
X173081904Y-84078571D02*
X172281904Y-84078571D01*
X172281904Y-83697619D01*
D10*
%TO.C,D3*%
X109751904Y-83002380D02*
X109751904Y-82002380D01*
X109990000Y-82002380D01*
X110132857Y-82050000D01*
X110228095Y-82145238D01*
X110275714Y-82240476D01*
X110323333Y-82430952D01*
X110323333Y-82573809D01*
X110275714Y-82764285D01*
X110228095Y-82859523D01*
X110132857Y-82954761D01*
X109990000Y-83002380D01*
X109751904Y-83002380D01*
X110656666Y-82002380D02*
X111275714Y-82002380D01*
X110942380Y-82383333D01*
X111085238Y-82383333D01*
X111180476Y-82430952D01*
X111228095Y-82478571D01*
X111275714Y-82573809D01*
X111275714Y-82811904D01*
X111228095Y-82907142D01*
X111180476Y-82954761D01*
X111085238Y-83002380D01*
X110799523Y-83002380D01*
X110704285Y-82954761D01*
X110656666Y-82907142D01*
X108347142Y-88082380D02*
X107775714Y-88082380D01*
X108061428Y-88082380D02*
X108061428Y-87082380D01*
X107966190Y-87225238D01*
X107870952Y-87320476D01*
X107775714Y-87368095D01*
X108775714Y-88082380D02*
X108775714Y-87082380D01*
X109347142Y-88082380D01*
X109347142Y-87082380D01*
X110299523Y-87082380D02*
X109823333Y-87082380D01*
X109775714Y-87558571D01*
X109823333Y-87510952D01*
X109918571Y-87463333D01*
X110156666Y-87463333D01*
X110251904Y-87510952D01*
X110299523Y-87558571D01*
X110347142Y-87653809D01*
X110347142Y-87891904D01*
X110299523Y-87987142D01*
X110251904Y-88034761D01*
X110156666Y-88082380D01*
X109918571Y-88082380D01*
X109823333Y-88034761D01*
X109775714Y-87987142D01*
X110918571Y-87510952D02*
X110823333Y-87463333D01*
X110775714Y-87415714D01*
X110728095Y-87320476D01*
X110728095Y-87272857D01*
X110775714Y-87177619D01*
X110823333Y-87130000D01*
X110918571Y-87082380D01*
X111109047Y-87082380D01*
X111204285Y-87130000D01*
X111251904Y-87177619D01*
X111299523Y-87272857D01*
X111299523Y-87320476D01*
X111251904Y-87415714D01*
X111204285Y-87463333D01*
X111109047Y-87510952D01*
X110918571Y-87510952D01*
X110823333Y-87558571D01*
X110775714Y-87606190D01*
X110728095Y-87701428D01*
X110728095Y-87891904D01*
X110775714Y-87987142D01*
X110823333Y-88034761D01*
X110918571Y-88082380D01*
X111109047Y-88082380D01*
X111204285Y-88034761D01*
X111251904Y-87987142D01*
X111299523Y-87891904D01*
X111299523Y-87701428D01*
X111251904Y-87606190D01*
X111204285Y-87558571D01*
X111109047Y-87510952D01*
X112251904Y-88082380D02*
X111680476Y-88082380D01*
X111966190Y-88082380D02*
X111966190Y-87082380D01*
X111870952Y-87225238D01*
X111775714Y-87320476D01*
X111680476Y-87368095D01*
X112585238Y-87082380D02*
X113251904Y-87082380D01*
X112823333Y-88082380D01*
X115308095Y-87642380D02*
X115308095Y-86642380D01*
X115879523Y-87642380D02*
X115450952Y-87070952D01*
X115879523Y-86642380D02*
X115308095Y-87213809D01*
%TO.C,J3*%
X106346666Y-93432380D02*
X106346666Y-94146666D01*
X106299047Y-94289523D01*
X106203809Y-94384761D01*
X106060952Y-94432380D01*
X105965714Y-94432380D01*
X106727619Y-93432380D02*
X107346666Y-93432380D01*
X107013333Y-93813333D01*
X107156190Y-93813333D01*
X107251428Y-93860952D01*
X107299047Y-93908571D01*
X107346666Y-94003809D01*
X107346666Y-94241904D01*
X107299047Y-94337142D01*
X107251428Y-94384761D01*
X107156190Y-94432380D01*
X106870476Y-94432380D01*
X106775238Y-94384761D01*
X106727619Y-94337142D01*
%TO.C,R1*%
X159853333Y-77922380D02*
X159520000Y-77446190D01*
X159281904Y-77922380D02*
X159281904Y-76922380D01*
X159662857Y-76922380D01*
X159758095Y-76970000D01*
X159805714Y-77017619D01*
X159853333Y-77112857D01*
X159853333Y-77255714D01*
X159805714Y-77350952D01*
X159758095Y-77398571D01*
X159662857Y-77446190D01*
X159281904Y-77446190D01*
X160805714Y-77922380D02*
X160234285Y-77922380D01*
X160520000Y-77922380D02*
X160520000Y-76922380D01*
X160424761Y-77065238D01*
X160329523Y-77160476D01*
X160234285Y-77208095D01*
X167354285Y-77922380D02*
X166782857Y-77922380D01*
X167068571Y-77922380D02*
X167068571Y-76922380D01*
X166973333Y-77065238D01*
X166878095Y-77160476D01*
X166782857Y-77208095D01*
X167782857Y-77922380D02*
X167782857Y-76922380D01*
X168116190Y-77636666D01*
X168449523Y-76922380D01*
X168449523Y-77922380D01*
%TO.C,RV4*%
X132532380Y-97115238D02*
X132056190Y-97448571D01*
X132532380Y-97686666D02*
X131532380Y-97686666D01*
X131532380Y-97305714D01*
X131580000Y-97210476D01*
X131627619Y-97162857D01*
X131722857Y-97115238D01*
X131865714Y-97115238D01*
X131960952Y-97162857D01*
X132008571Y-97210476D01*
X132056190Y-97305714D01*
X132056190Y-97686666D01*
X131532380Y-96829523D02*
X132532380Y-96496190D01*
X131532380Y-96162857D01*
X131865714Y-95400952D02*
X132532380Y-95400952D01*
X131484761Y-95639047D02*
X132199047Y-95877142D01*
X132199047Y-95258095D01*
%TO.C,C7*%
X128304642Y-76567142D02*
X128257023Y-76614761D01*
X128114166Y-76662380D01*
X128018928Y-76662380D01*
X127876071Y-76614761D01*
X127780833Y-76519523D01*
X127733214Y-76424285D01*
X127685595Y-76233809D01*
X127685595Y-76090952D01*
X127733214Y-75900476D01*
X127780833Y-75805238D01*
X127876071Y-75710000D01*
X128018928Y-75662380D01*
X128114166Y-75662380D01*
X128257023Y-75710000D01*
X128304642Y-75757619D01*
X128637976Y-75662380D02*
X129304642Y-75662380D01*
X128876071Y-76662380D01*
X127495119Y-78567380D02*
X126923690Y-78567380D01*
X127209404Y-78567380D02*
X127209404Y-77567380D01*
X127114166Y-77710238D01*
X127018928Y-77805476D01*
X126923690Y-77853095D01*
X128352261Y-77900714D02*
X128352261Y-78567380D01*
X127923690Y-77900714D02*
X127923690Y-78424523D01*
X127971309Y-78519761D01*
X128066547Y-78567380D01*
X128209404Y-78567380D01*
X128304642Y-78519761D01*
X128352261Y-78472142D01*
X129161785Y-78043571D02*
X128828452Y-78043571D01*
X128828452Y-78567380D02*
X128828452Y-77567380D01*
X129304642Y-77567380D01*
%TO.C,SW1*%
X66611666Y-101159761D02*
X66754523Y-101207380D01*
X66992619Y-101207380D01*
X67087857Y-101159761D01*
X67135476Y-101112142D01*
X67183095Y-101016904D01*
X67183095Y-100921666D01*
X67135476Y-100826428D01*
X67087857Y-100778809D01*
X66992619Y-100731190D01*
X66802142Y-100683571D01*
X66706904Y-100635952D01*
X66659285Y-100588333D01*
X66611666Y-100493095D01*
X66611666Y-100397857D01*
X66659285Y-100302619D01*
X66706904Y-100255000D01*
X66802142Y-100207380D01*
X67040238Y-100207380D01*
X67183095Y-100255000D01*
X67516428Y-100207380D02*
X67754523Y-101207380D01*
X67945000Y-100493095D01*
X68135476Y-101207380D01*
X68373571Y-100207380D01*
X69278333Y-101207380D02*
X68706904Y-101207380D01*
X68992619Y-101207380D02*
X68992619Y-100207380D01*
X68897380Y-100350238D01*
X68802142Y-100445476D01*
X68706904Y-100493095D01*
%TO.C,R11*%
X127632142Y-85542380D02*
X127298809Y-85066190D01*
X127060714Y-85542380D02*
X127060714Y-84542380D01*
X127441666Y-84542380D01*
X127536904Y-84590000D01*
X127584523Y-84637619D01*
X127632142Y-84732857D01*
X127632142Y-84875714D01*
X127584523Y-84970952D01*
X127536904Y-85018571D01*
X127441666Y-85066190D01*
X127060714Y-85066190D01*
X128584523Y-85542380D02*
X128013095Y-85542380D01*
X128298809Y-85542380D02*
X128298809Y-84542380D01*
X128203571Y-84685238D01*
X128108333Y-84780476D01*
X128013095Y-84828095D01*
X129536904Y-85542380D02*
X128965476Y-85542380D01*
X129251190Y-85542380D02*
X129251190Y-84542380D01*
X129155952Y-84685238D01*
X129060714Y-84780476D01*
X128965476Y-84828095D01*
X134823571Y-85542380D02*
X134252142Y-85542380D01*
X134537857Y-85542380D02*
X134537857Y-84542380D01*
X134442619Y-84685238D01*
X134347380Y-84780476D01*
X134252142Y-84828095D01*
X135442619Y-84542380D02*
X135537857Y-84542380D01*
X135633095Y-84590000D01*
X135680714Y-84637619D01*
X135728333Y-84732857D01*
X135775952Y-84923333D01*
X135775952Y-85161428D01*
X135728333Y-85351904D01*
X135680714Y-85447142D01*
X135633095Y-85494761D01*
X135537857Y-85542380D01*
X135442619Y-85542380D01*
X135347380Y-85494761D01*
X135299761Y-85447142D01*
X135252142Y-85351904D01*
X135204523Y-85161428D01*
X135204523Y-84923333D01*
X135252142Y-84732857D01*
X135299761Y-84637619D01*
X135347380Y-84590000D01*
X135442619Y-84542380D01*
X136395000Y-84542380D02*
X136490238Y-84542380D01*
X136585476Y-84590000D01*
X136633095Y-84637619D01*
X136680714Y-84732857D01*
X136728333Y-84923333D01*
X136728333Y-85161428D01*
X136680714Y-85351904D01*
X136633095Y-85447142D01*
X136585476Y-85494761D01*
X136490238Y-85542380D01*
X136395000Y-85542380D01*
X136299761Y-85494761D01*
X136252142Y-85447142D01*
X136204523Y-85351904D01*
X136156904Y-85161428D01*
X136156904Y-84923333D01*
X136204523Y-84732857D01*
X136252142Y-84637619D01*
X136299761Y-84590000D01*
X136395000Y-84542380D01*
X137156904Y-85542380D02*
X137156904Y-84542380D01*
X137252142Y-85161428D02*
X137537857Y-85542380D01*
X137537857Y-84875714D02*
X137156904Y-85256666D01*
%TO.C,R13*%
X166997142Y-99512380D02*
X166663809Y-99036190D01*
X166425714Y-99512380D02*
X166425714Y-98512380D01*
X166806666Y-98512380D01*
X166901904Y-98560000D01*
X166949523Y-98607619D01*
X166997142Y-98702857D01*
X166997142Y-98845714D01*
X166949523Y-98940952D01*
X166901904Y-98988571D01*
X166806666Y-99036190D01*
X166425714Y-99036190D01*
X167949523Y-99512380D02*
X167378095Y-99512380D01*
X167663809Y-99512380D02*
X167663809Y-98512380D01*
X167568571Y-98655238D01*
X167473333Y-98750476D01*
X167378095Y-98798095D01*
X168282857Y-98512380D02*
X168901904Y-98512380D01*
X168568571Y-98893333D01*
X168711428Y-98893333D01*
X168806666Y-98940952D01*
X168854285Y-98988571D01*
X168901904Y-99083809D01*
X168901904Y-99321904D01*
X168854285Y-99417142D01*
X168806666Y-99464761D01*
X168711428Y-99512380D01*
X168425714Y-99512380D01*
X168330476Y-99464761D01*
X168282857Y-99417142D01*
X166378095Y-96305714D02*
X166378095Y-96972380D01*
X166140000Y-95924761D02*
X165901904Y-96639047D01*
X166520952Y-96639047D01*
X166806666Y-95972380D02*
X167473333Y-95972380D01*
X167044761Y-96972380D01*
X168044761Y-95972380D02*
X168140000Y-95972380D01*
X168235238Y-96020000D01*
X168282857Y-96067619D01*
X168330476Y-96162857D01*
X168378095Y-96353333D01*
X168378095Y-96591428D01*
X168330476Y-96781904D01*
X168282857Y-96877142D01*
X168235238Y-96924761D01*
X168140000Y-96972380D01*
X168044761Y-96972380D01*
X167949523Y-96924761D01*
X167901904Y-96877142D01*
X167854285Y-96781904D01*
X167806666Y-96591428D01*
X167806666Y-96353333D01*
X167854285Y-96162857D01*
X167901904Y-96067619D01*
X167949523Y-96020000D01*
X168044761Y-95972380D01*
X169378095Y-96972380D02*
X169044761Y-96496190D01*
X168806666Y-96972380D02*
X168806666Y-95972380D01*
X169187619Y-95972380D01*
X169282857Y-96020000D01*
X169330476Y-96067619D01*
X169378095Y-96162857D01*
X169378095Y-96305714D01*
X169330476Y-96400952D01*
X169282857Y-96448571D01*
X169187619Y-96496190D01*
X168806666Y-96496190D01*
%TO.C,R3*%
X159853333Y-80462380D02*
X159520000Y-79986190D01*
X159281904Y-80462380D02*
X159281904Y-79462380D01*
X159662857Y-79462380D01*
X159758095Y-79510000D01*
X159805714Y-79557619D01*
X159853333Y-79652857D01*
X159853333Y-79795714D01*
X159805714Y-79890952D01*
X159758095Y-79938571D01*
X159662857Y-79986190D01*
X159281904Y-79986190D01*
X160186666Y-79462380D02*
X160805714Y-79462380D01*
X160472380Y-79843333D01*
X160615238Y-79843333D01*
X160710476Y-79890952D01*
X160758095Y-79938571D01*
X160805714Y-80033809D01*
X160805714Y-80271904D01*
X160758095Y-80367142D01*
X160710476Y-80414761D01*
X160615238Y-80462380D01*
X160329523Y-80462380D01*
X160234285Y-80414761D01*
X160186666Y-80367142D01*
X165901904Y-79557619D02*
X165949523Y-79510000D01*
X166044761Y-79462380D01*
X166282857Y-79462380D01*
X166378095Y-79510000D01*
X166425714Y-79557619D01*
X166473333Y-79652857D01*
X166473333Y-79748095D01*
X166425714Y-79890952D01*
X165854285Y-80462380D01*
X166473333Y-80462380D01*
X166854285Y-79557619D02*
X166901904Y-79510000D01*
X166997142Y-79462380D01*
X167235238Y-79462380D01*
X167330476Y-79510000D01*
X167378095Y-79557619D01*
X167425714Y-79652857D01*
X167425714Y-79748095D01*
X167378095Y-79890952D01*
X166806666Y-80462380D01*
X167425714Y-80462380D01*
X168044761Y-79462380D02*
X168140000Y-79462380D01*
X168235238Y-79510000D01*
X168282857Y-79557619D01*
X168330476Y-79652857D01*
X168378095Y-79843333D01*
X168378095Y-80081428D01*
X168330476Y-80271904D01*
X168282857Y-80367142D01*
X168235238Y-80414761D01*
X168140000Y-80462380D01*
X168044761Y-80462380D01*
X167949523Y-80414761D01*
X167901904Y-80367142D01*
X167854285Y-80271904D01*
X167806666Y-80081428D01*
X167806666Y-79843333D01*
X167854285Y-79652857D01*
X167901904Y-79557619D01*
X167949523Y-79510000D01*
X168044761Y-79462380D01*
X168806666Y-80462380D02*
X168806666Y-79462380D01*
X169378095Y-80462380D02*
X168949523Y-79890952D01*
X169378095Y-79462380D02*
X168806666Y-80033809D01*
%TO.C,U2*%
X152908095Y-76922380D02*
X152908095Y-77731904D01*
X152955714Y-77827142D01*
X153003333Y-77874761D01*
X153098571Y-77922380D01*
X153289047Y-77922380D01*
X153384285Y-77874761D01*
X153431904Y-77827142D01*
X153479523Y-77731904D01*
X153479523Y-76922380D01*
X153908095Y-77017619D02*
X153955714Y-76970000D01*
X154050952Y-76922380D01*
X154289047Y-76922380D01*
X154384285Y-76970000D01*
X154431904Y-77017619D01*
X154479523Y-77112857D01*
X154479523Y-77208095D01*
X154431904Y-77350952D01*
X153860476Y-77922380D01*
X154479523Y-77922380D01*
X141395952Y-78192380D02*
X141967380Y-78192380D01*
X141681666Y-79192380D02*
X141681666Y-78192380D01*
X142776904Y-79192380D02*
X142300714Y-79192380D01*
X142300714Y-78192380D01*
X143300714Y-78192380D02*
X143395952Y-78192380D01*
X143491190Y-78240000D01*
X143538809Y-78287619D01*
X143586428Y-78382857D01*
X143634047Y-78573333D01*
X143634047Y-78811428D01*
X143586428Y-79001904D01*
X143538809Y-79097142D01*
X143491190Y-79144761D01*
X143395952Y-79192380D01*
X143300714Y-79192380D01*
X143205476Y-79144761D01*
X143157857Y-79097142D01*
X143110238Y-79001904D01*
X143062619Y-78811428D01*
X143062619Y-78573333D01*
X143110238Y-78382857D01*
X143157857Y-78287619D01*
X143205476Y-78240000D01*
X143300714Y-78192380D01*
X143967380Y-78192380D02*
X144634047Y-78192380D01*
X144205476Y-79192380D01*
X145443571Y-78525714D02*
X145443571Y-79192380D01*
X145205476Y-78144761D02*
X144967380Y-78859047D01*
X145586428Y-78859047D01*
%TO.C,R9*%
X158583333Y-85542380D02*
X158250000Y-85066190D01*
X158011904Y-85542380D02*
X158011904Y-84542380D01*
X158392857Y-84542380D01*
X158488095Y-84590000D01*
X158535714Y-84637619D01*
X158583333Y-84732857D01*
X158583333Y-84875714D01*
X158535714Y-84970952D01*
X158488095Y-85018571D01*
X158392857Y-85066190D01*
X158011904Y-85066190D01*
X159059523Y-85542380D02*
X159250000Y-85542380D01*
X159345238Y-85494761D01*
X159392857Y-85447142D01*
X159488095Y-85304285D01*
X159535714Y-85113809D01*
X159535714Y-84732857D01*
X159488095Y-84637619D01*
X159440476Y-84590000D01*
X159345238Y-84542380D01*
X159154761Y-84542380D01*
X159059523Y-84590000D01*
X159011904Y-84637619D01*
X158964285Y-84732857D01*
X158964285Y-84970952D01*
X159011904Y-85066190D01*
X159059523Y-85113809D01*
X159154761Y-85161428D01*
X159345238Y-85161428D01*
X159440476Y-85113809D01*
X159488095Y-85066190D01*
X159535714Y-84970952D01*
X150058571Y-85542380D02*
X149487142Y-85542380D01*
X149772857Y-85542380D02*
X149772857Y-84542380D01*
X149677619Y-84685238D01*
X149582380Y-84780476D01*
X149487142Y-84828095D01*
X150677619Y-84542380D02*
X150772857Y-84542380D01*
X150868095Y-84590000D01*
X150915714Y-84637619D01*
X150963333Y-84732857D01*
X151010952Y-84923333D01*
X151010952Y-85161428D01*
X150963333Y-85351904D01*
X150915714Y-85447142D01*
X150868095Y-85494761D01*
X150772857Y-85542380D01*
X150677619Y-85542380D01*
X150582380Y-85494761D01*
X150534761Y-85447142D01*
X150487142Y-85351904D01*
X150439523Y-85161428D01*
X150439523Y-84923333D01*
X150487142Y-84732857D01*
X150534761Y-84637619D01*
X150582380Y-84590000D01*
X150677619Y-84542380D01*
X151630000Y-84542380D02*
X151725238Y-84542380D01*
X151820476Y-84590000D01*
X151868095Y-84637619D01*
X151915714Y-84732857D01*
X151963333Y-84923333D01*
X151963333Y-85161428D01*
X151915714Y-85351904D01*
X151868095Y-85447142D01*
X151820476Y-85494761D01*
X151725238Y-85542380D01*
X151630000Y-85542380D01*
X151534761Y-85494761D01*
X151487142Y-85447142D01*
X151439523Y-85351904D01*
X151391904Y-85161428D01*
X151391904Y-84923333D01*
X151439523Y-84732857D01*
X151487142Y-84637619D01*
X151534761Y-84590000D01*
X151630000Y-84542380D01*
X152391904Y-85542380D02*
X152391904Y-84542380D01*
X152487142Y-85161428D02*
X152772857Y-85542380D01*
X152772857Y-84875714D02*
X152391904Y-85256666D01*
%TO.C,R2*%
X159853333Y-75382380D02*
X159520000Y-74906190D01*
X159281904Y-75382380D02*
X159281904Y-74382380D01*
X159662857Y-74382380D01*
X159758095Y-74430000D01*
X159805714Y-74477619D01*
X159853333Y-74572857D01*
X159853333Y-74715714D01*
X159805714Y-74810952D01*
X159758095Y-74858571D01*
X159662857Y-74906190D01*
X159281904Y-74906190D01*
X160234285Y-74477619D02*
X160281904Y-74430000D01*
X160377142Y-74382380D01*
X160615238Y-74382380D01*
X160710476Y-74430000D01*
X160758095Y-74477619D01*
X160805714Y-74572857D01*
X160805714Y-74668095D01*
X160758095Y-74810952D01*
X160186666Y-75382380D01*
X160805714Y-75382380D01*
X166473333Y-75382380D02*
X165901904Y-75382380D01*
X166187619Y-75382380D02*
X166187619Y-74382380D01*
X166092380Y-74525238D01*
X165997142Y-74620476D01*
X165901904Y-74668095D01*
X167092380Y-74382380D02*
X167187619Y-74382380D01*
X167282857Y-74430000D01*
X167330476Y-74477619D01*
X167378095Y-74572857D01*
X167425714Y-74763333D01*
X167425714Y-75001428D01*
X167378095Y-75191904D01*
X167330476Y-75287142D01*
X167282857Y-75334761D01*
X167187619Y-75382380D01*
X167092380Y-75382380D01*
X166997142Y-75334761D01*
X166949523Y-75287142D01*
X166901904Y-75191904D01*
X166854285Y-75001428D01*
X166854285Y-74763333D01*
X166901904Y-74572857D01*
X166949523Y-74477619D01*
X166997142Y-74430000D01*
X167092380Y-74382380D01*
X168044761Y-74382380D02*
X168140000Y-74382380D01*
X168235238Y-74430000D01*
X168282857Y-74477619D01*
X168330476Y-74572857D01*
X168378095Y-74763333D01*
X168378095Y-75001428D01*
X168330476Y-75191904D01*
X168282857Y-75287142D01*
X168235238Y-75334761D01*
X168140000Y-75382380D01*
X168044761Y-75382380D01*
X167949523Y-75334761D01*
X167901904Y-75287142D01*
X167854285Y-75191904D01*
X167806666Y-75001428D01*
X167806666Y-74763333D01*
X167854285Y-74572857D01*
X167901904Y-74477619D01*
X167949523Y-74430000D01*
X168044761Y-74382380D01*
X169378095Y-75382380D02*
X169044761Y-74906190D01*
X168806666Y-75382380D02*
X168806666Y-74382380D01*
X169187619Y-74382380D01*
X169282857Y-74430000D01*
X169330476Y-74477619D01*
X169378095Y-74572857D01*
X169378095Y-74715714D01*
X169330476Y-74810952D01*
X169282857Y-74858571D01*
X169187619Y-74906190D01*
X168806666Y-74906190D01*
%TO.C,RV2*%
X112212380Y-66635238D02*
X111736190Y-66968571D01*
X112212380Y-67206666D02*
X111212380Y-67206666D01*
X111212380Y-66825714D01*
X111260000Y-66730476D01*
X111307619Y-66682857D01*
X111402857Y-66635238D01*
X111545714Y-66635238D01*
X111640952Y-66682857D01*
X111688571Y-66730476D01*
X111736190Y-66825714D01*
X111736190Y-67206666D01*
X111212380Y-66349523D02*
X112212380Y-66016190D01*
X111212380Y-65682857D01*
X111307619Y-65397142D02*
X111260000Y-65349523D01*
X111212380Y-65254285D01*
X111212380Y-65016190D01*
X111260000Y-64920952D01*
X111307619Y-64873333D01*
X111402857Y-64825714D01*
X111498095Y-64825714D01*
X111640952Y-64873333D01*
X112212380Y-65444761D01*
X112212380Y-64825714D01*
X119039047Y-69032380D02*
X118467619Y-69032380D01*
X118753333Y-69032380D02*
X118753333Y-68032380D01*
X118658095Y-68175238D01*
X118562857Y-68270476D01*
X118467619Y-68318095D01*
X119658095Y-68032380D02*
X119753333Y-68032380D01*
X119848571Y-68080000D01*
X119896190Y-68127619D01*
X119943809Y-68222857D01*
X119991428Y-68413333D01*
X119991428Y-68651428D01*
X119943809Y-68841904D01*
X119896190Y-68937142D01*
X119848571Y-68984761D01*
X119753333Y-69032380D01*
X119658095Y-69032380D01*
X119562857Y-68984761D01*
X119515238Y-68937142D01*
X119467619Y-68841904D01*
X119420000Y-68651428D01*
X119420000Y-68413333D01*
X119467619Y-68222857D01*
X119515238Y-68127619D01*
X119562857Y-68080000D01*
X119658095Y-68032380D01*
X120610476Y-68032380D02*
X120705714Y-68032380D01*
X120800952Y-68080000D01*
X120848571Y-68127619D01*
X120896190Y-68222857D01*
X120943809Y-68413333D01*
X120943809Y-68651428D01*
X120896190Y-68841904D01*
X120848571Y-68937142D01*
X120800952Y-68984761D01*
X120705714Y-69032380D01*
X120610476Y-69032380D01*
X120515238Y-68984761D01*
X120467619Y-68937142D01*
X120420000Y-68841904D01*
X120372380Y-68651428D01*
X120372380Y-68413333D01*
X120420000Y-68222857D01*
X120467619Y-68127619D01*
X120515238Y-68080000D01*
X120610476Y-68032380D01*
X121372380Y-69032380D02*
X121372380Y-68032380D01*
X121467619Y-68651428D02*
X121753333Y-69032380D01*
X121753333Y-68365714D02*
X121372380Y-68746666D01*
X123420000Y-69032380D02*
X122943809Y-69032380D01*
X122943809Y-68032380D01*
X123943809Y-68032380D02*
X124134285Y-68032380D01*
X124229523Y-68080000D01*
X124324761Y-68175238D01*
X124372380Y-68365714D01*
X124372380Y-68699047D01*
X124324761Y-68889523D01*
X124229523Y-68984761D01*
X124134285Y-69032380D01*
X123943809Y-69032380D01*
X123848571Y-68984761D01*
X123753333Y-68889523D01*
X123705714Y-68699047D01*
X123705714Y-68365714D01*
X123753333Y-68175238D01*
X123848571Y-68080000D01*
X123943809Y-68032380D01*
X125324761Y-68080000D02*
X125229523Y-68032380D01*
X125086666Y-68032380D01*
X124943809Y-68080000D01*
X124848571Y-68175238D01*
X124800952Y-68270476D01*
X124753333Y-68460952D01*
X124753333Y-68603809D01*
X124800952Y-68794285D01*
X124848571Y-68889523D01*
X124943809Y-68984761D01*
X125086666Y-69032380D01*
X125181904Y-69032380D01*
X125324761Y-68984761D01*
X125372380Y-68937142D01*
X125372380Y-68603809D01*
X125181904Y-68603809D01*
X120134285Y-70064380D02*
X120705714Y-70064380D01*
X120420000Y-71064380D02*
X120420000Y-70064380D01*
X121229523Y-70064380D02*
X121420000Y-70064380D01*
X121515238Y-70112000D01*
X121610476Y-70207238D01*
X121658095Y-70397714D01*
X121658095Y-70731047D01*
X121610476Y-70921523D01*
X121515238Y-71016761D01*
X121420000Y-71064380D01*
X121229523Y-71064380D01*
X121134285Y-71016761D01*
X121039047Y-70921523D01*
X120991428Y-70731047D01*
X120991428Y-70397714D01*
X121039047Y-70207238D01*
X121134285Y-70112000D01*
X121229523Y-70064380D01*
X122086666Y-71064380D02*
X122086666Y-70064380D01*
X122658095Y-71064380D01*
X122658095Y-70064380D01*
X123134285Y-70540571D02*
X123467619Y-70540571D01*
X123610476Y-71064380D02*
X123134285Y-71064380D01*
X123134285Y-70064380D01*
X123610476Y-70064380D01*
%TO.C,R5*%
X159853333Y-93162380D02*
X159520000Y-92686190D01*
X159281904Y-93162380D02*
X159281904Y-92162380D01*
X159662857Y-92162380D01*
X159758095Y-92210000D01*
X159805714Y-92257619D01*
X159853333Y-92352857D01*
X159853333Y-92495714D01*
X159805714Y-92590952D01*
X159758095Y-92638571D01*
X159662857Y-92686190D01*
X159281904Y-92686190D01*
X160758095Y-92162380D02*
X160281904Y-92162380D01*
X160234285Y-92638571D01*
X160281904Y-92590952D01*
X160377142Y-92543333D01*
X160615238Y-92543333D01*
X160710476Y-92590952D01*
X160758095Y-92638571D01*
X160805714Y-92733809D01*
X160805714Y-92971904D01*
X160758095Y-93067142D01*
X160710476Y-93114761D01*
X160615238Y-93162380D01*
X160377142Y-93162380D01*
X160281904Y-93114761D01*
X160234285Y-93067142D01*
X166568571Y-93162380D02*
X165997142Y-93162380D01*
X166282857Y-93162380D02*
X166282857Y-92162380D01*
X166187619Y-92305238D01*
X166092380Y-92400476D01*
X165997142Y-92448095D01*
X167187619Y-92162380D02*
X167282857Y-92162380D01*
X167378095Y-92210000D01*
X167425714Y-92257619D01*
X167473333Y-92352857D01*
X167520952Y-92543333D01*
X167520952Y-92781428D01*
X167473333Y-92971904D01*
X167425714Y-93067142D01*
X167378095Y-93114761D01*
X167282857Y-93162380D01*
X167187619Y-93162380D01*
X167092380Y-93114761D01*
X167044761Y-93067142D01*
X166997142Y-92971904D01*
X166949523Y-92781428D01*
X166949523Y-92543333D01*
X166997142Y-92352857D01*
X167044761Y-92257619D01*
X167092380Y-92210000D01*
X167187619Y-92162380D01*
X168140000Y-92162380D02*
X168235238Y-92162380D01*
X168330476Y-92210000D01*
X168378095Y-92257619D01*
X168425714Y-92352857D01*
X168473333Y-92543333D01*
X168473333Y-92781428D01*
X168425714Y-92971904D01*
X168378095Y-93067142D01*
X168330476Y-93114761D01*
X168235238Y-93162380D01*
X168140000Y-93162380D01*
X168044761Y-93114761D01*
X167997142Y-93067142D01*
X167949523Y-92971904D01*
X167901904Y-92781428D01*
X167901904Y-92543333D01*
X167949523Y-92352857D01*
X167997142Y-92257619D01*
X168044761Y-92210000D01*
X168140000Y-92162380D01*
X168901904Y-93162380D02*
X168901904Y-92162380D01*
X168997142Y-92781428D02*
X169282857Y-93162380D01*
X169282857Y-92495714D02*
X168901904Y-92876666D01*
%TO.C,R10*%
X127627142Y-88082380D02*
X127293809Y-87606190D01*
X127055714Y-88082380D02*
X127055714Y-87082380D01*
X127436666Y-87082380D01*
X127531904Y-87130000D01*
X127579523Y-87177619D01*
X127627142Y-87272857D01*
X127627142Y-87415714D01*
X127579523Y-87510952D01*
X127531904Y-87558571D01*
X127436666Y-87606190D01*
X127055714Y-87606190D01*
X128579523Y-88082380D02*
X128008095Y-88082380D01*
X128293809Y-88082380D02*
X128293809Y-87082380D01*
X128198571Y-87225238D01*
X128103333Y-87320476D01*
X128008095Y-87368095D01*
X129198571Y-87082380D02*
X129293809Y-87082380D01*
X129389047Y-87130000D01*
X129436666Y-87177619D01*
X129484285Y-87272857D01*
X129531904Y-87463333D01*
X129531904Y-87701428D01*
X129484285Y-87891904D01*
X129436666Y-87987142D01*
X129389047Y-88034761D01*
X129293809Y-88082380D01*
X129198571Y-88082380D01*
X129103333Y-88034761D01*
X129055714Y-87987142D01*
X129008095Y-87891904D01*
X128960476Y-87701428D01*
X128960476Y-87463333D01*
X129008095Y-87272857D01*
X129055714Y-87177619D01*
X129103333Y-87130000D01*
X129198571Y-87082380D01*
X134818571Y-88082380D02*
X134247142Y-88082380D01*
X134532857Y-88082380D02*
X134532857Y-87082380D01*
X134437619Y-87225238D01*
X134342380Y-87320476D01*
X134247142Y-87368095D01*
X135437619Y-87082380D02*
X135532857Y-87082380D01*
X135628095Y-87130000D01*
X135675714Y-87177619D01*
X135723333Y-87272857D01*
X135770952Y-87463333D01*
X135770952Y-87701428D01*
X135723333Y-87891904D01*
X135675714Y-87987142D01*
X135628095Y-88034761D01*
X135532857Y-88082380D01*
X135437619Y-88082380D01*
X135342380Y-88034761D01*
X135294761Y-87987142D01*
X135247142Y-87891904D01*
X135199523Y-87701428D01*
X135199523Y-87463333D01*
X135247142Y-87272857D01*
X135294761Y-87177619D01*
X135342380Y-87130000D01*
X135437619Y-87082380D01*
X136390000Y-87082380D02*
X136485238Y-87082380D01*
X136580476Y-87130000D01*
X136628095Y-87177619D01*
X136675714Y-87272857D01*
X136723333Y-87463333D01*
X136723333Y-87701428D01*
X136675714Y-87891904D01*
X136628095Y-87987142D01*
X136580476Y-88034761D01*
X136485238Y-88082380D01*
X136390000Y-88082380D01*
X136294761Y-88034761D01*
X136247142Y-87987142D01*
X136199523Y-87891904D01*
X136151904Y-87701428D01*
X136151904Y-87463333D01*
X136199523Y-87272857D01*
X136247142Y-87177619D01*
X136294761Y-87130000D01*
X136390000Y-87082380D01*
X137151904Y-88082380D02*
X137151904Y-87082380D01*
X137247142Y-87701428D02*
X137532857Y-88082380D01*
X137532857Y-87415714D02*
X137151904Y-87796666D01*
%TO.C,D1*%
X121181904Y-95067380D02*
X121181904Y-94067380D01*
X121420000Y-94067380D01*
X121562857Y-94115000D01*
X121658095Y-94210238D01*
X121705714Y-94305476D01*
X121753333Y-94495952D01*
X121753333Y-94638809D01*
X121705714Y-94829285D01*
X121658095Y-94924523D01*
X121562857Y-95019761D01*
X121420000Y-95067380D01*
X121181904Y-95067380D01*
X122705714Y-95067380D02*
X122134285Y-95067380D01*
X122420000Y-95067380D02*
X122420000Y-94067380D01*
X122324761Y-94210238D01*
X122229523Y-94305476D01*
X122134285Y-94353095D01*
%TO.C,RV1*%
X81732380Y-66635238D02*
X81256190Y-66968571D01*
X81732380Y-67206666D02*
X80732380Y-67206666D01*
X80732380Y-66825714D01*
X80780000Y-66730476D01*
X80827619Y-66682857D01*
X80922857Y-66635238D01*
X81065714Y-66635238D01*
X81160952Y-66682857D01*
X81208571Y-66730476D01*
X81256190Y-66825714D01*
X81256190Y-67206666D01*
X80732380Y-66349523D02*
X81732380Y-66016190D01*
X80732380Y-65682857D01*
X81732380Y-64825714D02*
X81732380Y-65397142D01*
X81732380Y-65111428D02*
X80732380Y-65111428D01*
X80875238Y-65206666D01*
X80970476Y-65301904D01*
X81018095Y-65397142D01*
X68500952Y-69032380D02*
X67929523Y-69032380D01*
X68215238Y-69032380D02*
X68215238Y-68032380D01*
X68120000Y-68175238D01*
X68024761Y-68270476D01*
X67929523Y-68318095D01*
X69120000Y-68032380D02*
X69215238Y-68032380D01*
X69310476Y-68080000D01*
X69358095Y-68127619D01*
X69405714Y-68222857D01*
X69453333Y-68413333D01*
X69453333Y-68651428D01*
X69405714Y-68841904D01*
X69358095Y-68937142D01*
X69310476Y-68984761D01*
X69215238Y-69032380D01*
X69120000Y-69032380D01*
X69024761Y-68984761D01*
X68977142Y-68937142D01*
X68929523Y-68841904D01*
X68881904Y-68651428D01*
X68881904Y-68413333D01*
X68929523Y-68222857D01*
X68977142Y-68127619D01*
X69024761Y-68080000D01*
X69120000Y-68032380D01*
X70072380Y-68032380D02*
X70167619Y-68032380D01*
X70262857Y-68080000D01*
X70310476Y-68127619D01*
X70358095Y-68222857D01*
X70405714Y-68413333D01*
X70405714Y-68651428D01*
X70358095Y-68841904D01*
X70310476Y-68937142D01*
X70262857Y-68984761D01*
X70167619Y-69032380D01*
X70072380Y-69032380D01*
X69977142Y-68984761D01*
X69929523Y-68937142D01*
X69881904Y-68841904D01*
X69834285Y-68651428D01*
X69834285Y-68413333D01*
X69881904Y-68222857D01*
X69929523Y-68127619D01*
X69977142Y-68080000D01*
X70072380Y-68032380D01*
X70834285Y-69032380D02*
X70834285Y-68032380D01*
X70929523Y-68651428D02*
X71215238Y-69032380D01*
X71215238Y-68365714D02*
X70834285Y-68746666D01*
X72881904Y-69032380D02*
X72405714Y-69032380D01*
X72405714Y-68032380D01*
X73215238Y-69032380D02*
X73215238Y-68032380D01*
X73691428Y-69032380D02*
X73691428Y-68032380D01*
X74262857Y-69032380D01*
X74262857Y-68032380D01*
X70191428Y-69985000D02*
X70096190Y-69937380D01*
X69953333Y-69937380D01*
X69810476Y-69985000D01*
X69715238Y-70080238D01*
X69667619Y-70175476D01*
X69620000Y-70365952D01*
X69620000Y-70508809D01*
X69667619Y-70699285D01*
X69715238Y-70794523D01*
X69810476Y-70889761D01*
X69953333Y-70937380D01*
X70048571Y-70937380D01*
X70191428Y-70889761D01*
X70239047Y-70842142D01*
X70239047Y-70508809D01*
X70048571Y-70508809D01*
X70620000Y-70651666D02*
X71096190Y-70651666D01*
X70524761Y-70937380D02*
X70858095Y-69937380D01*
X71191428Y-70937380D01*
X71524761Y-70937380D02*
X71524761Y-69937380D01*
X72000952Y-70937380D02*
X72000952Y-69937380D01*
X72572380Y-70937380D01*
X72572380Y-69937380D01*
%TO.C,C10*%
X143232142Y-90812857D02*
X143279761Y-90860476D01*
X143327380Y-91003333D01*
X143327380Y-91098571D01*
X143279761Y-91241428D01*
X143184523Y-91336666D01*
X143089285Y-91384285D01*
X142898809Y-91431904D01*
X142755952Y-91431904D01*
X142565476Y-91384285D01*
X142470238Y-91336666D01*
X142375000Y-91241428D01*
X142327380Y-91098571D01*
X142327380Y-91003333D01*
X142375000Y-90860476D01*
X142422619Y-90812857D01*
X143327380Y-89860476D02*
X143327380Y-90431904D01*
X143327380Y-90146190D02*
X142327380Y-90146190D01*
X142470238Y-90241428D01*
X142565476Y-90336666D01*
X142613095Y-90431904D01*
X142327380Y-89241428D02*
X142327380Y-89146190D01*
X142375000Y-89050952D01*
X142422619Y-89003333D01*
X142517857Y-88955714D01*
X142708333Y-88908095D01*
X142946428Y-88908095D01*
X143136904Y-88955714D01*
X143232142Y-89003333D01*
X143279761Y-89050952D01*
X143327380Y-89146190D01*
X143327380Y-89241428D01*
X143279761Y-89336666D01*
X143232142Y-89384285D01*
X143136904Y-89431904D01*
X142946428Y-89479523D01*
X142708333Y-89479523D01*
X142517857Y-89431904D01*
X142422619Y-89384285D01*
X142375000Y-89336666D01*
X142327380Y-89241428D01*
%TO.C,J1*%
X82216666Y-94067380D02*
X82216666Y-94781666D01*
X82169047Y-94924523D01*
X82073809Y-95019761D01*
X81930952Y-95067380D01*
X81835714Y-95067380D01*
X83216666Y-95067380D02*
X82645238Y-95067380D01*
X82930952Y-95067380D02*
X82930952Y-94067380D01*
X82835714Y-94210238D01*
X82740476Y-94305476D01*
X82645238Y-94353095D01*
X80621428Y-96972380D02*
X80621428Y-95972380D01*
X81097619Y-96972380D02*
X81097619Y-95972380D01*
X81669047Y-96972380D01*
X81669047Y-95972380D01*
X82145238Y-96972380D02*
X82145238Y-95972380D01*
X82526190Y-95972380D01*
X82621428Y-96020000D01*
X82669047Y-96067619D01*
X82716666Y-96162857D01*
X82716666Y-96305714D01*
X82669047Y-96400952D01*
X82621428Y-96448571D01*
X82526190Y-96496190D01*
X82145238Y-96496190D01*
X83145238Y-95972380D02*
X83145238Y-96781904D01*
X83192857Y-96877142D01*
X83240476Y-96924761D01*
X83335714Y-96972380D01*
X83526190Y-96972380D01*
X83621428Y-96924761D01*
X83669047Y-96877142D01*
X83716666Y-96781904D01*
X83716666Y-95972380D01*
X84050000Y-95972380D02*
X84621428Y-95972380D01*
X84335714Y-96972380D02*
X84335714Y-95972380D01*
%TO.C,R4*%
X159853333Y-90622380D02*
X159520000Y-90146190D01*
X159281904Y-90622380D02*
X159281904Y-89622380D01*
X159662857Y-89622380D01*
X159758095Y-89670000D01*
X159805714Y-89717619D01*
X159853333Y-89812857D01*
X159853333Y-89955714D01*
X159805714Y-90050952D01*
X159758095Y-90098571D01*
X159662857Y-90146190D01*
X159281904Y-90146190D01*
X160710476Y-89955714D02*
X160710476Y-90622380D01*
X160472380Y-89574761D02*
X160234285Y-90289047D01*
X160853333Y-90289047D01*
X166473333Y-89955714D02*
X166473333Y-90622380D01*
X166235238Y-89574761D02*
X165997142Y-90289047D01*
X166616190Y-90289047D01*
X166901904Y-89622380D02*
X167568571Y-89622380D01*
X167140000Y-90622380D01*
X168140000Y-89622380D02*
X168235238Y-89622380D01*
X168330476Y-89670000D01*
X168378095Y-89717619D01*
X168425714Y-89812857D01*
X168473333Y-90003333D01*
X168473333Y-90241428D01*
X168425714Y-90431904D01*
X168378095Y-90527142D01*
X168330476Y-90574761D01*
X168235238Y-90622380D01*
X168140000Y-90622380D01*
X168044761Y-90574761D01*
X167997142Y-90527142D01*
X167949523Y-90431904D01*
X167901904Y-90241428D01*
X167901904Y-90003333D01*
X167949523Y-89812857D01*
X167997142Y-89717619D01*
X168044761Y-89670000D01*
X168140000Y-89622380D01*
X168901904Y-90622380D02*
X168901904Y-89622380D01*
X168997142Y-90241428D02*
X169282857Y-90622380D01*
X169282857Y-89955714D02*
X168901904Y-90336666D01*
%TO.C,R6*%
X144597380Y-90336666D02*
X144121190Y-90670000D01*
X144597380Y-90908095D02*
X143597380Y-90908095D01*
X143597380Y-90527142D01*
X143645000Y-90431904D01*
X143692619Y-90384285D01*
X143787857Y-90336666D01*
X143930714Y-90336666D01*
X144025952Y-90384285D01*
X144073571Y-90431904D01*
X144121190Y-90527142D01*
X144121190Y-90908095D01*
X143597380Y-89479523D02*
X143597380Y-89670000D01*
X143645000Y-89765238D01*
X143692619Y-89812857D01*
X143835476Y-89908095D01*
X144025952Y-89955714D01*
X144406904Y-89955714D01*
X144502142Y-89908095D01*
X144549761Y-89860476D01*
X144597380Y-89765238D01*
X144597380Y-89574761D01*
X144549761Y-89479523D01*
X144502142Y-89431904D01*
X144406904Y-89384285D01*
X144168809Y-89384285D01*
X144073571Y-89431904D01*
X144025952Y-89479523D01*
X143978333Y-89574761D01*
X143978333Y-89765238D01*
X144025952Y-89860476D01*
X144073571Y-89908095D01*
X144168809Y-89955714D01*
X150058571Y-90622380D02*
X149487142Y-90622380D01*
X149772857Y-90622380D02*
X149772857Y-89622380D01*
X149677619Y-89765238D01*
X149582380Y-89860476D01*
X149487142Y-89908095D01*
X150677619Y-89622380D02*
X150772857Y-89622380D01*
X150868095Y-89670000D01*
X150915714Y-89717619D01*
X150963333Y-89812857D01*
X151010952Y-90003333D01*
X151010952Y-90241428D01*
X150963333Y-90431904D01*
X150915714Y-90527142D01*
X150868095Y-90574761D01*
X150772857Y-90622380D01*
X150677619Y-90622380D01*
X150582380Y-90574761D01*
X150534761Y-90527142D01*
X150487142Y-90431904D01*
X150439523Y-90241428D01*
X150439523Y-90003333D01*
X150487142Y-89812857D01*
X150534761Y-89717619D01*
X150582380Y-89670000D01*
X150677619Y-89622380D01*
X151630000Y-89622380D02*
X151725238Y-89622380D01*
X151820476Y-89670000D01*
X151868095Y-89717619D01*
X151915714Y-89812857D01*
X151963333Y-90003333D01*
X151963333Y-90241428D01*
X151915714Y-90431904D01*
X151868095Y-90527142D01*
X151820476Y-90574761D01*
X151725238Y-90622380D01*
X151630000Y-90622380D01*
X151534761Y-90574761D01*
X151487142Y-90527142D01*
X151439523Y-90431904D01*
X151391904Y-90241428D01*
X151391904Y-90003333D01*
X151439523Y-89812857D01*
X151487142Y-89717619D01*
X151534761Y-89670000D01*
X151630000Y-89622380D01*
X152391904Y-90622380D02*
X152391904Y-89622380D01*
X152487142Y-90241428D02*
X152772857Y-90622380D01*
X152772857Y-89955714D02*
X152391904Y-90336666D01*
%TO.C,C1*%
X120563333Y-73382142D02*
X120515714Y-73429761D01*
X120372857Y-73477380D01*
X120277619Y-73477380D01*
X120134761Y-73429761D01*
X120039523Y-73334523D01*
X119991904Y-73239285D01*
X119944285Y-73048809D01*
X119944285Y-72905952D01*
X119991904Y-72715476D01*
X120039523Y-72620238D01*
X120134761Y-72525000D01*
X120277619Y-72477380D01*
X120372857Y-72477380D01*
X120515714Y-72525000D01*
X120563333Y-72572619D01*
X121515714Y-73477380D02*
X120944285Y-73477380D01*
X121230000Y-73477380D02*
X121230000Y-72477380D01*
X121134761Y-72620238D01*
X121039523Y-72715476D01*
X120944285Y-72763095D01*
X119523333Y-76620714D02*
X119523333Y-77287380D01*
X119285238Y-76239761D02*
X119047142Y-76954047D01*
X119666190Y-76954047D01*
X119951904Y-76287380D02*
X120618571Y-76287380D01*
X120190000Y-77287380D01*
X120999523Y-76620714D02*
X120999523Y-77287380D01*
X120999523Y-76715952D02*
X121047142Y-76668333D01*
X121142380Y-76620714D01*
X121285238Y-76620714D01*
X121380476Y-76668333D01*
X121428095Y-76763571D01*
X121428095Y-77287380D01*
X122237619Y-76763571D02*
X121904285Y-76763571D01*
X121904285Y-77287380D02*
X121904285Y-76287380D01*
X122380476Y-76287380D01*
%TO.C,C3*%
X162393333Y-84177142D02*
X162345714Y-84224761D01*
X162202857Y-84272380D01*
X162107619Y-84272380D01*
X161964761Y-84224761D01*
X161869523Y-84129523D01*
X161821904Y-84034285D01*
X161774285Y-83843809D01*
X161774285Y-83700952D01*
X161821904Y-83510476D01*
X161869523Y-83415238D01*
X161964761Y-83320000D01*
X162107619Y-83272380D01*
X162202857Y-83272380D01*
X162345714Y-83320000D01*
X162393333Y-83367619D01*
X162726666Y-83272380D02*
X163345714Y-83272380D01*
X163012380Y-83653333D01*
X163155238Y-83653333D01*
X163250476Y-83700952D01*
X163298095Y-83748571D01*
X163345714Y-83843809D01*
X163345714Y-84081904D01*
X163298095Y-84177142D01*
X163250476Y-84224761D01*
X163155238Y-84272380D01*
X162869523Y-84272380D01*
X162774285Y-84224761D01*
X162726666Y-84177142D01*
X161964761Y-86812380D02*
X161393333Y-86812380D01*
X161679047Y-86812380D02*
X161679047Y-85812380D01*
X161583809Y-85955238D01*
X161488571Y-86050476D01*
X161393333Y-86098095D01*
X162821904Y-86145714D02*
X162821904Y-86812380D01*
X162393333Y-86145714D02*
X162393333Y-86669523D01*
X162440952Y-86764761D01*
X162536190Y-86812380D01*
X162679047Y-86812380D01*
X162774285Y-86764761D01*
X162821904Y-86717142D01*
X163631428Y-86288571D02*
X163298095Y-86288571D01*
X163298095Y-86812380D02*
X163298095Y-85812380D01*
X163774285Y-85812380D01*
%TO.C,R7*%
X158578333Y-88082380D02*
X158245000Y-87606190D01*
X158006904Y-88082380D02*
X158006904Y-87082380D01*
X158387857Y-87082380D01*
X158483095Y-87130000D01*
X158530714Y-87177619D01*
X158578333Y-87272857D01*
X158578333Y-87415714D01*
X158530714Y-87510952D01*
X158483095Y-87558571D01*
X158387857Y-87606190D01*
X158006904Y-87606190D01*
X158911666Y-87082380D02*
X159578333Y-87082380D01*
X159149761Y-88082380D01*
X150058571Y-88082380D02*
X149487142Y-88082380D01*
X149772857Y-88082380D02*
X149772857Y-87082380D01*
X149677619Y-87225238D01*
X149582380Y-87320476D01*
X149487142Y-87368095D01*
X150677619Y-87082380D02*
X150772857Y-87082380D01*
X150868095Y-87130000D01*
X150915714Y-87177619D01*
X150963333Y-87272857D01*
X151010952Y-87463333D01*
X151010952Y-87701428D01*
X150963333Y-87891904D01*
X150915714Y-87987142D01*
X150868095Y-88034761D01*
X150772857Y-88082380D01*
X150677619Y-88082380D01*
X150582380Y-88034761D01*
X150534761Y-87987142D01*
X150487142Y-87891904D01*
X150439523Y-87701428D01*
X150439523Y-87463333D01*
X150487142Y-87272857D01*
X150534761Y-87177619D01*
X150582380Y-87130000D01*
X150677619Y-87082380D01*
X151630000Y-87082380D02*
X151725238Y-87082380D01*
X151820476Y-87130000D01*
X151868095Y-87177619D01*
X151915714Y-87272857D01*
X151963333Y-87463333D01*
X151963333Y-87701428D01*
X151915714Y-87891904D01*
X151868095Y-87987142D01*
X151820476Y-88034761D01*
X151725238Y-88082380D01*
X151630000Y-88082380D01*
X151534761Y-88034761D01*
X151487142Y-87987142D01*
X151439523Y-87891904D01*
X151391904Y-87701428D01*
X151391904Y-87463333D01*
X151439523Y-87272857D01*
X151487142Y-87177619D01*
X151534761Y-87130000D01*
X151630000Y-87082380D01*
X152391904Y-88082380D02*
X152391904Y-87082380D01*
X152487142Y-87701428D02*
X152772857Y-88082380D01*
X152772857Y-87415714D02*
X152391904Y-87796666D01*
D12*
%TO.C,R14*%
X121690000Y-90170000D02*
X122460000Y-90170000D01*
X129770000Y-90170000D02*
X129000000Y-90170000D01*
X129000000Y-91540000D02*
X129000000Y-88800000D01*
X122460000Y-88800000D02*
X122460000Y-91540000D01*
X129000000Y-88800000D02*
X122460000Y-88800000D01*
X122460000Y-91540000D02*
X129000000Y-91540000D01*
%TO.C,R12*%
X136930000Y-72390000D02*
X137700000Y-72390000D01*
X145010000Y-72390000D02*
X144240000Y-72390000D01*
X137700000Y-71020000D02*
X137700000Y-73760000D01*
X144240000Y-71020000D02*
X137700000Y-71020000D01*
X137700000Y-73760000D02*
X144240000Y-73760000D01*
X144240000Y-73760000D02*
X144240000Y-71020000D01*
%TO.C,D2*%
X179130000Y-97790000D02*
X176470000Y-97790000D01*
X179130000Y-97790000D02*
X179130000Y-95190000D01*
X179130000Y-100390000D02*
X177800000Y-100390000D01*
X179130000Y-99060000D02*
X179130000Y-100390000D01*
X176470000Y-97790000D02*
X176470000Y-95190000D01*
X179130000Y-95190000D02*
X176470000Y-95190000D01*
%TO.C,R8*%
X147090000Y-92710000D02*
X147860000Y-92710000D01*
X154400000Y-91340000D02*
X147860000Y-91340000D01*
X155170000Y-92710000D02*
X154400000Y-92710000D01*
X147860000Y-91340000D02*
X147860000Y-94080000D01*
X154400000Y-94080000D02*
X154400000Y-91340000D01*
X147860000Y-94080000D02*
X154400000Y-94080000D01*
%TO.C,J2*%
X93980000Y-100390000D02*
X92650000Y-100390000D01*
X95250000Y-100390000D02*
X95250000Y-97730000D01*
X95250000Y-100390000D02*
X97850000Y-100390000D01*
X92650000Y-100390000D02*
X92650000Y-99060000D01*
X97850000Y-100390000D02*
X97850000Y-97730000D01*
X95250000Y-97730000D02*
X97850000Y-97730000D01*
%TO.C,C4*%
X132701000Y-66960000D02*
X133959000Y-66960000D01*
X132701000Y-65120000D02*
X133959000Y-65120000D01*
%TO.C,C9*%
X121690000Y-82519000D02*
X122874000Y-82519000D01*
X121690000Y-81759000D02*
X122204000Y-81759000D01*
X121690000Y-81999000D02*
X122476000Y-81999000D01*
X121690000Y-82719000D02*
X122979000Y-82719000D01*
X121690000Y-83440000D02*
X123200000Y-83440000D01*
X121690000Y-82919000D02*
X123064000Y-82919000D01*
X121690000Y-82999000D02*
X123092000Y-82999000D01*
X118170000Y-83119000D02*
X119610000Y-83119000D01*
X118114000Y-83360000D02*
X119610000Y-83360000D01*
X118236000Y-82919000D02*
X119610000Y-82919000D01*
X121690000Y-82239000D02*
X122685000Y-82239000D01*
X118139000Y-83240000D02*
X119610000Y-83240000D01*
X118182000Y-83079000D02*
X119610000Y-83079000D01*
X118997000Y-81839000D02*
X119610000Y-81839000D01*
X121690000Y-82959000D02*
X123078000Y-82959000D01*
X119175000Y-86644775D02*
X119175000Y-86144775D01*
X118615000Y-82239000D02*
X119610000Y-82239000D01*
X121690000Y-82119000D02*
X122587000Y-82119000D01*
X118222000Y-82959000D02*
X119610000Y-82959000D01*
X119552000Y-81479000D02*
X121748000Y-81479000D01*
X121690000Y-81799000D02*
X122255000Y-81799000D01*
X118285000Y-82799000D02*
X119610000Y-82799000D01*
X118268000Y-82839000D02*
X119610000Y-82839000D01*
X121690000Y-82839000D02*
X123032000Y-82839000D01*
X121690000Y-83520000D02*
X123211000Y-83520000D01*
X118122000Y-83320000D02*
X119610000Y-83320000D01*
X118646000Y-82199000D02*
X119610000Y-82199000D01*
X118130000Y-83280000D02*
X119610000Y-83280000D01*
X118501000Y-82399000D02*
X119610000Y-82399000D01*
X121690000Y-83039000D02*
X123105000Y-83039000D01*
X118403000Y-82559000D02*
X119610000Y-82559000D01*
X118865000Y-81959000D02*
X119610000Y-81959000D01*
X119973000Y-81319000D02*
X121327000Y-81319000D01*
X119845000Y-81359000D02*
X121455000Y-81359000D01*
X121690000Y-82759000D02*
X122998000Y-82759000D01*
X121690000Y-83480000D02*
X123206000Y-83480000D01*
X121690000Y-81919000D02*
X122393000Y-81919000D01*
X118360000Y-82639000D02*
X119610000Y-82639000D01*
X121690000Y-82799000D02*
X123015000Y-82799000D01*
X121690000Y-82279000D02*
X122715000Y-82279000D01*
X118585000Y-82279000D02*
X119610000Y-82279000D01*
X121690000Y-83560000D02*
X123215000Y-83560000D01*
X121690000Y-82879000D02*
X123048000Y-82879000D01*
X118925000Y-86394775D02*
X119425000Y-86394775D01*
X118081000Y-83600000D02*
X119610000Y-83600000D01*
X119096000Y-81759000D02*
X119610000Y-81759000D01*
X121690000Y-83320000D02*
X123178000Y-83320000D01*
X121690000Y-83360000D02*
X123186000Y-83360000D01*
X120366000Y-81239000D02*
X120934000Y-81239000D01*
X121690000Y-82559000D02*
X122897000Y-82559000D01*
X118074000Y-83680000D02*
X123226000Y-83680000D01*
X119331000Y-81599000D02*
X119610000Y-81599000D01*
X118071000Y-83760000D02*
X123229000Y-83760000D01*
X119045000Y-81799000D02*
X119610000Y-81799000D01*
X119639000Y-81439000D02*
X121661000Y-81439000D01*
X121690000Y-82599000D02*
X122918000Y-82599000D01*
X118907000Y-81919000D02*
X119610000Y-81919000D01*
X121690000Y-81679000D02*
X122093000Y-81679000D01*
X121690000Y-81719000D02*
X122150000Y-81719000D01*
X121690000Y-82479000D02*
X122850000Y-82479000D01*
X118824000Y-81999000D02*
X119610000Y-81999000D01*
X118195000Y-83039000D02*
X119610000Y-83039000D01*
X118159000Y-83160000D02*
X119610000Y-83160000D01*
X121690000Y-81639000D02*
X122033000Y-81639000D01*
X118089000Y-83520000D02*
X119610000Y-83520000D01*
X118208000Y-82999000D02*
X119610000Y-82999000D01*
X118713000Y-82119000D02*
X119610000Y-82119000D01*
X119150000Y-81719000D02*
X119610000Y-81719000D01*
X121690000Y-81599000D02*
X121969000Y-81599000D01*
X118100000Y-83440000D02*
X119610000Y-83440000D01*
X118340000Y-82679000D02*
X119610000Y-82679000D01*
X121690000Y-83600000D02*
X123219000Y-83600000D01*
X121690000Y-82399000D02*
X122799000Y-82399000D01*
X121690000Y-81559000D02*
X121901000Y-81559000D01*
X121690000Y-82639000D02*
X122940000Y-82639000D01*
X121690000Y-82199000D02*
X122654000Y-82199000D01*
X119207000Y-81679000D02*
X119610000Y-81679000D01*
X121690000Y-83200000D02*
X123151000Y-83200000D01*
X118426000Y-82519000D02*
X119610000Y-82519000D01*
X121690000Y-81839000D02*
X122303000Y-81839000D01*
X121690000Y-82439000D02*
X122825000Y-82439000D01*
X120132000Y-81279000D02*
X121168000Y-81279000D01*
X119735000Y-81399000D02*
X121565000Y-81399000D01*
X118528000Y-82359000D02*
X119610000Y-82359000D01*
X118252000Y-82879000D02*
X119610000Y-82879000D01*
X119267000Y-81639000D02*
X119610000Y-81639000D01*
X118085000Y-83560000D02*
X119610000Y-83560000D01*
X121690000Y-83280000D02*
X123170000Y-83280000D01*
X121690000Y-82039000D02*
X122514000Y-82039000D01*
X118786000Y-82039000D02*
X119610000Y-82039000D01*
X118450000Y-82479000D02*
X119610000Y-82479000D01*
X118072000Y-83720000D02*
X123228000Y-83720000D01*
X118382000Y-82599000D02*
X119610000Y-82599000D01*
X118321000Y-82719000D02*
X119610000Y-82719000D01*
X118679000Y-82159000D02*
X119610000Y-82159000D01*
X118951000Y-81879000D02*
X119610000Y-81879000D01*
X121690000Y-82159000D02*
X122621000Y-82159000D01*
X118094000Y-83480000D02*
X119610000Y-83480000D01*
X118555000Y-82319000D02*
X119610000Y-82319000D01*
X121690000Y-82079000D02*
X122551000Y-82079000D01*
X121690000Y-82319000D02*
X122745000Y-82319000D01*
X119399000Y-81559000D02*
X119610000Y-81559000D01*
X121690000Y-83119000D02*
X123130000Y-83119000D01*
X118149000Y-83200000D02*
X119610000Y-83200000D01*
X121690000Y-81959000D02*
X122435000Y-81959000D01*
X118077000Y-83640000D02*
X123223000Y-83640000D01*
X121690000Y-81879000D02*
X122349000Y-81879000D01*
X121690000Y-83400000D02*
X123193000Y-83400000D01*
X121690000Y-82679000D02*
X122960000Y-82679000D01*
X118070000Y-83800000D02*
X123230000Y-83800000D01*
X118070000Y-83840000D02*
X123230000Y-83840000D01*
X119472000Y-81519000D02*
X121828000Y-81519000D01*
X121690000Y-82359000D02*
X122772000Y-82359000D01*
X121690000Y-83160000D02*
X123141000Y-83160000D01*
X118749000Y-82079000D02*
X119610000Y-82079000D01*
X118107000Y-83400000D02*
X119610000Y-83400000D01*
X121690000Y-83079000D02*
X123118000Y-83079000D01*
X121690000Y-83240000D02*
X123161000Y-83240000D01*
X118302000Y-82759000D02*
X119610000Y-82759000D01*
X118475000Y-82439000D02*
X119610000Y-82439000D01*
X123270000Y-83840000D02*
G75*
G03*
X123270000Y-83840000I-2620000J0D01*
G01*
%TO.C,C8*%
X132925000Y-80799000D02*
X134025000Y-80799000D01*
X130255000Y-80559000D02*
X131245000Y-80559000D01*
X132925000Y-80519000D02*
X133893000Y-80519000D01*
X132925000Y-80960000D02*
X134079000Y-80960000D01*
X132925000Y-80880000D02*
X134053000Y-80880000D01*
X130689000Y-79999000D02*
X131245000Y-79999000D01*
X130831000Y-79879000D02*
X131245000Y-79879000D01*
X132925000Y-79759000D02*
X133165000Y-79759000D01*
X130029000Y-81240000D02*
X131245000Y-81240000D01*
X132925000Y-81200000D02*
X134135000Y-81200000D01*
X130300000Y-80479000D02*
X131245000Y-80479000D01*
X130690000Y-83629801D02*
X131090000Y-83629801D01*
X130008000Y-81440000D02*
X134162000Y-81440000D01*
X132925000Y-81080000D02*
X134110000Y-81080000D01*
X130377000Y-80359000D02*
X131245000Y-80359000D01*
X132925000Y-80119000D02*
X133601000Y-80119000D01*
X131421000Y-79559000D02*
X132749000Y-79559000D01*
X130060000Y-81080000D02*
X131245000Y-81080000D01*
X132925000Y-80319000D02*
X133765000Y-80319000D01*
X130734000Y-79959000D02*
X131245000Y-79959000D01*
X130145000Y-80799000D02*
X131245000Y-80799000D01*
X132925000Y-80359000D02*
X133793000Y-80359000D01*
X132925000Y-80479000D02*
X133870000Y-80479000D01*
X130215000Y-80639000D02*
X131245000Y-80639000D01*
X132925000Y-80839000D02*
X134039000Y-80839000D01*
X132925000Y-80159000D02*
X133637000Y-80159000D01*
X130103000Y-80920000D02*
X131245000Y-80920000D01*
X130018000Y-81320000D02*
X131245000Y-81320000D01*
X131005000Y-79759000D02*
X131245000Y-79759000D01*
X131548000Y-79519000D02*
X132622000Y-79519000D01*
X132925000Y-81120000D02*
X134119000Y-81120000D01*
X132925000Y-79999000D02*
X133481000Y-79999000D01*
X132925000Y-81040000D02*
X134101000Y-81040000D01*
X130466000Y-80239000D02*
X131245000Y-80239000D01*
X130006000Y-81480000D02*
X134164000Y-81480000D01*
X130435000Y-80279000D02*
X131245000Y-80279000D01*
X130234000Y-80599000D02*
X131245000Y-80599000D01*
X130091000Y-80960000D02*
X131245000Y-80960000D01*
X130023000Y-81280000D02*
X131245000Y-81280000D01*
X132925000Y-80439000D02*
X133845000Y-80439000D01*
X130035000Y-81200000D02*
X131245000Y-81200000D01*
X132925000Y-79879000D02*
X133339000Y-79879000D01*
X130005000Y-81560000D02*
X134165000Y-81560000D01*
X130781000Y-79919000D02*
X131245000Y-79919000D01*
X132925000Y-79799000D02*
X133227000Y-79799000D01*
X132925000Y-81360000D02*
X134156000Y-81360000D01*
X132925000Y-81160000D02*
X134127000Y-81160000D01*
X130196000Y-80679000D02*
X131245000Y-80679000D01*
X130647000Y-80039000D02*
X131245000Y-80039000D01*
X132925000Y-80759000D02*
X134009000Y-80759000D01*
X130117000Y-80880000D02*
X131245000Y-80880000D01*
X130533000Y-80159000D02*
X131245000Y-80159000D01*
X132925000Y-80679000D02*
X133974000Y-80679000D01*
X130405000Y-80319000D02*
X131245000Y-80319000D01*
X130498000Y-80199000D02*
X131245000Y-80199000D01*
X131145000Y-79679000D02*
X133025000Y-79679000D01*
X130325000Y-80439000D02*
X131245000Y-80439000D01*
X130943000Y-79799000D02*
X131245000Y-79799000D01*
X130069000Y-81040000D02*
X131245000Y-81040000D01*
X132925000Y-80199000D02*
X133672000Y-80199000D01*
X130885000Y-79839000D02*
X131245000Y-79839000D01*
X130161000Y-80759000D02*
X131245000Y-80759000D01*
X130178000Y-80719000D02*
X131245000Y-80719000D01*
X130607000Y-80079000D02*
X131245000Y-80079000D01*
X130043000Y-81160000D02*
X131245000Y-81160000D01*
X130014000Y-81360000D02*
X131245000Y-81360000D01*
X132925000Y-81280000D02*
X134147000Y-81280000D01*
X132925000Y-81000000D02*
X134090000Y-81000000D01*
X132925000Y-80239000D02*
X133704000Y-80239000D01*
X131715000Y-79479000D02*
X132455000Y-79479000D01*
X132925000Y-80920000D02*
X134067000Y-80920000D01*
X130080000Y-81000000D02*
X131245000Y-81000000D01*
X131072000Y-79719000D02*
X133098000Y-79719000D01*
X132925000Y-80039000D02*
X133523000Y-80039000D01*
X130011000Y-81400000D02*
X134159000Y-81400000D01*
X130051000Y-81120000D02*
X131245000Y-81120000D01*
X132925000Y-81240000D02*
X134141000Y-81240000D01*
X132925000Y-80719000D02*
X133992000Y-80719000D01*
X130890000Y-83829801D02*
X130890000Y-83429801D01*
X132925000Y-81320000D02*
X134152000Y-81320000D01*
X130277000Y-80519000D02*
X131245000Y-80519000D01*
X132925000Y-79959000D02*
X133436000Y-79959000D01*
X130131000Y-80839000D02*
X131245000Y-80839000D01*
X131317000Y-79599000D02*
X132853000Y-79599000D01*
X132925000Y-80399000D02*
X133820000Y-80399000D01*
X130569000Y-80119000D02*
X131245000Y-80119000D01*
X132925000Y-79839000D02*
X133285000Y-79839000D01*
X132925000Y-80079000D02*
X133563000Y-80079000D01*
X132925000Y-80639000D02*
X133955000Y-80639000D01*
X131226000Y-79639000D02*
X132944000Y-79639000D01*
X132925000Y-80559000D02*
X133915000Y-80559000D01*
X130350000Y-80399000D02*
X131245000Y-80399000D01*
X130005000Y-81520000D02*
X134165000Y-81520000D01*
X132925000Y-80599000D02*
X133936000Y-80599000D01*
X132925000Y-79919000D02*
X133389000Y-79919000D01*
X132925000Y-80279000D02*
X133735000Y-80279000D01*
X134205000Y-81560000D02*
G75*
G03*
X134205000Y-81560000I-2120000J0D01*
G01*
%TO.C,Q1*%
X154360000Y-95990000D02*
X154360000Y-99590000D01*
X158810001Y-97790000D02*
G75*
G03*
X154371522Y-95951522I-2600001J0D01*
G01*
X154371522Y-99628478D02*
G75*
G03*
X158810000Y-97790000I1838478J1838478D01*
G01*
%TO.C,C5*%
X154595000Y-81939000D02*
X154595000Y-80681000D01*
X152755000Y-81939000D02*
X152755000Y-80681000D01*
%TO.C,U1*%
X179130000Y-73600000D02*
X176470000Y-73600000D01*
X179130000Y-91440000D02*
X179130000Y-73600000D01*
X179130000Y-92710000D02*
X179130000Y-94040000D01*
X179130000Y-91440000D02*
X176470000Y-91440000D01*
X179130000Y-94040000D02*
X177800000Y-94040000D01*
X176470000Y-91440000D02*
X176470000Y-73600000D01*
%TO.C,C6*%
X155673000Y-71349000D02*
X156747000Y-71349000D01*
X157050000Y-73030000D02*
X158260000Y-73030000D01*
X154694000Y-71949000D02*
X155370000Y-71949000D01*
X154450000Y-72269000D02*
X155370000Y-72269000D01*
X154286000Y-72589000D02*
X155370000Y-72589000D01*
X157050000Y-71989000D02*
X157762000Y-71989000D01*
X154194000Y-72870000D02*
X155370000Y-72870000D01*
X154176000Y-72950000D02*
X155370000Y-72950000D01*
X154502000Y-72189000D02*
X155370000Y-72189000D01*
X157050000Y-71829000D02*
X157606000Y-71829000D01*
X157050000Y-72309000D02*
X157995000Y-72309000D01*
X157050000Y-72589000D02*
X158134000Y-72589000D01*
X154168000Y-72990000D02*
X155370000Y-72990000D01*
X154185000Y-72910000D02*
X155370000Y-72910000D01*
X157050000Y-72509000D02*
X158099000Y-72509000D01*
X157050000Y-72990000D02*
X158252000Y-72990000D01*
X157050000Y-72429000D02*
X158061000Y-72429000D01*
X154623000Y-72029000D02*
X155370000Y-72029000D01*
X154139000Y-73190000D02*
X155370000Y-73190000D01*
X155270000Y-71509000D02*
X157150000Y-71509000D01*
X157050000Y-72389000D02*
X158040000Y-72389000D01*
X157050000Y-72870000D02*
X158226000Y-72870000D01*
X154359000Y-72429000D02*
X155370000Y-72429000D01*
X157050000Y-71629000D02*
X157352000Y-71629000D01*
X154148000Y-73110000D02*
X155370000Y-73110000D01*
X155546000Y-71389000D02*
X156874000Y-71389000D01*
X155015000Y-75659801D02*
X155015000Y-75259801D01*
X154133000Y-73270000D02*
X158287000Y-73270000D01*
X154130000Y-73350000D02*
X158290000Y-73350000D01*
X157050000Y-73150000D02*
X158277000Y-73150000D01*
X157050000Y-72950000D02*
X158244000Y-72950000D01*
X155068000Y-71629000D02*
X155370000Y-71629000D01*
X157050000Y-71909000D02*
X157688000Y-71909000D01*
X157050000Y-71949000D02*
X157726000Y-71949000D01*
X154425000Y-72309000D02*
X155370000Y-72309000D01*
X154136000Y-73230000D02*
X158284000Y-73230000D01*
X157050000Y-73110000D02*
X158272000Y-73110000D01*
X157050000Y-71709000D02*
X157464000Y-71709000D01*
X157050000Y-71669000D02*
X157410000Y-71669000D01*
X155197000Y-71549000D02*
X157223000Y-71549000D01*
X157050000Y-72629000D02*
X158150000Y-72629000D01*
X154530000Y-72149000D02*
X155370000Y-72149000D01*
X154143000Y-73150000D02*
X155370000Y-73150000D01*
X157050000Y-72269000D02*
X157970000Y-72269000D01*
X157050000Y-73070000D02*
X158266000Y-73070000D01*
X154560000Y-72109000D02*
X155370000Y-72109000D01*
X157050000Y-72910000D02*
X158235000Y-72910000D01*
X154591000Y-72069000D02*
X155370000Y-72069000D01*
X157050000Y-73190000D02*
X158281000Y-73190000D01*
X157050000Y-71589000D02*
X157290000Y-71589000D01*
X157050000Y-71789000D02*
X157561000Y-71789000D01*
X157050000Y-72830000D02*
X158215000Y-72830000D01*
X154402000Y-72349000D02*
X155370000Y-72349000D01*
X154906000Y-71749000D02*
X155370000Y-71749000D01*
X154380000Y-72389000D02*
X155370000Y-72389000D01*
X154131000Y-73310000D02*
X158289000Y-73310000D01*
X154130000Y-73390000D02*
X158290000Y-73390000D01*
X154160000Y-73030000D02*
X155370000Y-73030000D01*
X154475000Y-72229000D02*
X155370000Y-72229000D01*
X154815000Y-75459801D02*
X155215000Y-75459801D01*
X154772000Y-71869000D02*
X155370000Y-71869000D01*
X157050000Y-72669000D02*
X158164000Y-72669000D01*
X154216000Y-72790000D02*
X155370000Y-72790000D01*
X157050000Y-71869000D02*
X157648000Y-71869000D01*
X154228000Y-72750000D02*
X155370000Y-72750000D01*
X157050000Y-72469000D02*
X158080000Y-72469000D01*
X157050000Y-72029000D02*
X157797000Y-72029000D01*
X157050000Y-72189000D02*
X157918000Y-72189000D01*
X155840000Y-71309000D02*
X156580000Y-71309000D01*
X157050000Y-72349000D02*
X158018000Y-72349000D01*
X155010000Y-71669000D02*
X155370000Y-71669000D01*
X157050000Y-72790000D02*
X158204000Y-72790000D01*
X157050000Y-72750000D02*
X158192000Y-72750000D01*
X154956000Y-71709000D02*
X155370000Y-71709000D01*
X154270000Y-72629000D02*
X155370000Y-72629000D01*
X154242000Y-72710000D02*
X155370000Y-72710000D01*
X154205000Y-72830000D02*
X155370000Y-72830000D01*
X157050000Y-72069000D02*
X157829000Y-72069000D01*
X157050000Y-72229000D02*
X157945000Y-72229000D01*
X157050000Y-72549000D02*
X158117000Y-72549000D01*
X154340000Y-72469000D02*
X155370000Y-72469000D01*
X154732000Y-71909000D02*
X155370000Y-71909000D01*
X155351000Y-71469000D02*
X157069000Y-71469000D01*
X154859000Y-71789000D02*
X155370000Y-71789000D01*
X154154000Y-73070000D02*
X155370000Y-73070000D01*
X157050000Y-72710000D02*
X158178000Y-72710000D01*
X154303000Y-72549000D02*
X155370000Y-72549000D01*
X157050000Y-71749000D02*
X157514000Y-71749000D01*
X154321000Y-72509000D02*
X155370000Y-72509000D01*
X154658000Y-71989000D02*
X155370000Y-71989000D01*
X155442000Y-71429000D02*
X156978000Y-71429000D01*
X157050000Y-72149000D02*
X157890000Y-72149000D01*
X154256000Y-72669000D02*
X155370000Y-72669000D01*
X157050000Y-72109000D02*
X157860000Y-72109000D01*
X154814000Y-71829000D02*
X155370000Y-71829000D01*
X155130000Y-71589000D02*
X155370000Y-71589000D01*
X158330000Y-73390000D02*
G75*
G03*
X158330000Y-73390000I-2120000J0D01*
G01*
%TO.C,RV3*%
X166310000Y-64710000D02*
X166310000Y-67370000D01*
X179070000Y-64710000D02*
X179070000Y-67370000D01*
X179070000Y-64710000D02*
X166310000Y-64710000D01*
X179070000Y-67370000D02*
X166310000Y-67370000D01*
%TO.C,C2*%
X171650000Y-87320000D02*
X171665000Y-87320000D01*
X173775000Y-87320000D02*
X173790000Y-87320000D01*
X171650000Y-82780000D02*
X171665000Y-82780000D01*
X171650000Y-87320000D02*
X171650000Y-82780000D01*
X173790000Y-87320000D02*
X173790000Y-82780000D01*
X173775000Y-82780000D02*
X173790000Y-82780000D01*
%TO.C,D3*%
X112430000Y-86560000D02*
X112430000Y-83620000D01*
X113210000Y-83620000D02*
X107770000Y-83620000D01*
X107770000Y-86560000D02*
X113210000Y-86560000D01*
X112310000Y-86560000D02*
X112310000Y-83620000D01*
X106750000Y-85090000D02*
X107770000Y-85090000D01*
X112190000Y-86560000D02*
X112190000Y-83620000D01*
X113210000Y-86560000D02*
X113210000Y-83620000D01*
X107770000Y-83620000D02*
X107770000Y-86560000D01*
X114230000Y-85090000D02*
X113210000Y-85090000D01*
%TO.C,J3*%
X104030000Y-100780000D02*
X109330000Y-100780000D01*
X104030000Y-94760000D02*
X104030000Y-100780000D01*
X105660000Y-99250000D02*
X107700000Y-99250000D01*
X108750000Y-95360000D02*
X108750000Y-94760000D01*
X109330000Y-100780000D02*
X109330000Y-94760000D01*
X107950000Y-99780000D02*
X107950000Y-100780000D01*
X104610000Y-94760000D02*
X104610000Y-95360000D01*
X105660000Y-100780000D02*
X105660000Y-99780000D01*
X109330000Y-94760000D02*
X104030000Y-94760000D01*
X105410000Y-99780000D02*
X107950000Y-99780000D01*
X105410000Y-99780000D02*
X105660000Y-99250000D01*
X107150000Y-95360000D02*
X108750000Y-95360000D01*
X107150000Y-94760000D02*
X107150000Y-95360000D01*
X107700000Y-100780000D02*
X107700000Y-99780000D01*
X105410000Y-100780000D02*
X105410000Y-99780000D01*
X104610000Y-95360000D02*
X106210000Y-95360000D01*
X107700000Y-99250000D02*
X107950000Y-99780000D01*
X103740000Y-95790000D02*
X103740000Y-99790000D01*
X106210000Y-95360000D02*
X106210000Y-94760000D01*
%TO.C,R1*%
X170910000Y-78840000D02*
X170910000Y-76100000D01*
X164370000Y-78840000D02*
X170910000Y-78840000D01*
X170910000Y-76100000D02*
X164370000Y-76100000D01*
X163600000Y-77470000D02*
X164370000Y-77470000D01*
X171680000Y-77470000D02*
X170910000Y-77470000D01*
X164370000Y-76100000D02*
X164370000Y-78840000D01*
%TO.C,RV4*%
X133350000Y-91440000D02*
X143510000Y-91440000D01*
X143510000Y-91440000D02*
X143510000Y-101600000D01*
X143510000Y-101600000D02*
X133350000Y-101600000D01*
X133350000Y-101600000D02*
X133350000Y-91440000D01*
%TO.C,C7*%
X132925000Y-76435000D02*
X134053000Y-76435000D01*
X130035000Y-76755000D02*
X131245000Y-76755000D01*
X130008000Y-76995000D02*
X134162000Y-76995000D01*
X132925000Y-75954000D02*
X133820000Y-75954000D01*
X130690000Y-79184801D02*
X131090000Y-79184801D01*
X132925000Y-76475000D02*
X134067000Y-76475000D01*
X130569000Y-75674000D02*
X131245000Y-75674000D01*
X130005000Y-77075000D02*
X134165000Y-77075000D01*
X132925000Y-76314000D02*
X134009000Y-76314000D01*
X132925000Y-75554000D02*
X133481000Y-75554000D01*
X132925000Y-75674000D02*
X133601000Y-75674000D01*
X132925000Y-76354000D02*
X134025000Y-76354000D01*
X132925000Y-76875000D02*
X134152000Y-76875000D01*
X132925000Y-75314000D02*
X133165000Y-75314000D01*
X132925000Y-76194000D02*
X133955000Y-76194000D01*
X132925000Y-75754000D02*
X133672000Y-75754000D01*
X131421000Y-75114000D02*
X132749000Y-75114000D01*
X130234000Y-76154000D02*
X131245000Y-76154000D01*
X132925000Y-75874000D02*
X133765000Y-75874000D01*
X132925000Y-76635000D02*
X134110000Y-76635000D01*
X130005000Y-77115000D02*
X134165000Y-77115000D01*
X131072000Y-75274000D02*
X133098000Y-75274000D01*
X132925000Y-76114000D02*
X133915000Y-76114000D01*
X131005000Y-75314000D02*
X131245000Y-75314000D01*
X130350000Y-75954000D02*
X131245000Y-75954000D01*
X130885000Y-75394000D02*
X131245000Y-75394000D01*
X130006000Y-77035000D02*
X134164000Y-77035000D01*
X130117000Y-76435000D02*
X131245000Y-76435000D01*
X132925000Y-76595000D02*
X134101000Y-76595000D01*
X130145000Y-76354000D02*
X131245000Y-76354000D01*
X130435000Y-75834000D02*
X131245000Y-75834000D01*
X132925000Y-76074000D02*
X133893000Y-76074000D01*
X130890000Y-79384801D02*
X130890000Y-78984801D01*
X130043000Y-76715000D02*
X131245000Y-76715000D01*
X130377000Y-75914000D02*
X131245000Y-75914000D01*
X132925000Y-76715000D02*
X134127000Y-76715000D01*
X131715000Y-75034000D02*
X132455000Y-75034000D01*
X130831000Y-75434000D02*
X131245000Y-75434000D01*
X132925000Y-75994000D02*
X133845000Y-75994000D01*
X130178000Y-76274000D02*
X131245000Y-76274000D01*
X130466000Y-75794000D02*
X131245000Y-75794000D01*
X130943000Y-75354000D02*
X131245000Y-75354000D01*
X132925000Y-76515000D02*
X134079000Y-76515000D01*
X132925000Y-76234000D02*
X133974000Y-76234000D01*
X131548000Y-75074000D02*
X132622000Y-75074000D01*
X132925000Y-76755000D02*
X134135000Y-76755000D01*
X132925000Y-76675000D02*
X134119000Y-76675000D01*
X132925000Y-75354000D02*
X133227000Y-75354000D01*
X132925000Y-76034000D02*
X133870000Y-76034000D01*
X130060000Y-76635000D02*
X131245000Y-76635000D01*
X130689000Y-75554000D02*
X131245000Y-75554000D01*
X130277000Y-76074000D02*
X131245000Y-76074000D01*
X132925000Y-76915000D02*
X134156000Y-76915000D01*
X132925000Y-76555000D02*
X134090000Y-76555000D01*
X132925000Y-75714000D02*
X133637000Y-75714000D01*
X132925000Y-75474000D02*
X133389000Y-75474000D01*
X130498000Y-75754000D02*
X131245000Y-75754000D01*
X132925000Y-75434000D02*
X133339000Y-75434000D01*
X132925000Y-75394000D02*
X133285000Y-75394000D01*
X130018000Y-76875000D02*
X131245000Y-76875000D01*
X130069000Y-76595000D02*
X131245000Y-76595000D01*
X130734000Y-75514000D02*
X131245000Y-75514000D01*
X132925000Y-75594000D02*
X133523000Y-75594000D01*
X132925000Y-76795000D02*
X134141000Y-76795000D01*
X132925000Y-76835000D02*
X134147000Y-76835000D01*
X130131000Y-76394000D02*
X131245000Y-76394000D01*
X130051000Y-76675000D02*
X131245000Y-76675000D01*
X131226000Y-75194000D02*
X132944000Y-75194000D01*
X130647000Y-75594000D02*
X131245000Y-75594000D01*
X132925000Y-75634000D02*
X133563000Y-75634000D01*
X130080000Y-76555000D02*
X131245000Y-76555000D01*
X131145000Y-75234000D02*
X133025000Y-75234000D01*
X132925000Y-76274000D02*
X133992000Y-76274000D01*
X132925000Y-76394000D02*
X134039000Y-76394000D01*
X130781000Y-75474000D02*
X131245000Y-75474000D01*
X132925000Y-75914000D02*
X133793000Y-75914000D01*
X130011000Y-76955000D02*
X134159000Y-76955000D01*
X131317000Y-75154000D02*
X132853000Y-75154000D01*
X130103000Y-76475000D02*
X131245000Y-76475000D01*
X132925000Y-75794000D02*
X133704000Y-75794000D01*
X130255000Y-76114000D02*
X131245000Y-76114000D01*
X130029000Y-76795000D02*
X131245000Y-76795000D01*
X130023000Y-76835000D02*
X131245000Y-76835000D01*
X132925000Y-76154000D02*
X133936000Y-76154000D01*
X130300000Y-76034000D02*
X131245000Y-76034000D01*
X130014000Y-76915000D02*
X131245000Y-76915000D01*
X130325000Y-75994000D02*
X131245000Y-75994000D01*
X130405000Y-75874000D02*
X131245000Y-75874000D01*
X130533000Y-75714000D02*
X131245000Y-75714000D01*
X130196000Y-76234000D02*
X131245000Y-76234000D01*
X130607000Y-75634000D02*
X131245000Y-75634000D01*
X130091000Y-76515000D02*
X131245000Y-76515000D01*
X130161000Y-76314000D02*
X131245000Y-76314000D01*
X130215000Y-76194000D02*
X131245000Y-76194000D01*
X132925000Y-75834000D02*
X133735000Y-75834000D01*
X132925000Y-75514000D02*
X133436000Y-75514000D01*
X134205000Y-77115000D02*
G75*
G03*
X134205000Y-77115000I-2120000J0D01*
G01*
%TO.C,SW1*%
X70545000Y-99755000D02*
X69215000Y-99755000D01*
X70545000Y-92015000D02*
X65345000Y-92015000D01*
X70545000Y-98425000D02*
X70545000Y-99755000D01*
X67945000Y-97155000D02*
X67945000Y-99755000D01*
X70545000Y-97155000D02*
X67945000Y-97155000D01*
X67945000Y-99755000D02*
X65345000Y-99755000D01*
X65345000Y-99755000D02*
X65345000Y-92015000D01*
X70545000Y-97155000D02*
X70545000Y-92015000D01*
%TO.C,R11*%
X132625000Y-83720000D02*
X132625000Y-86460000D01*
X131855000Y-85090000D02*
X132625000Y-85090000D01*
X139935000Y-85090000D02*
X139165000Y-85090000D01*
X139165000Y-83720000D02*
X132625000Y-83720000D01*
X132625000Y-86460000D02*
X139165000Y-86460000D01*
X139165000Y-86460000D02*
X139165000Y-83720000D01*
%TO.C,R13*%
X170910000Y-97890000D02*
X170910000Y-95150000D01*
X163600000Y-96520000D02*
X164370000Y-96520000D01*
X171680000Y-96520000D02*
X170910000Y-96520000D01*
X164370000Y-95150000D02*
X164370000Y-97890000D01*
X170910000Y-95150000D02*
X164370000Y-95150000D01*
X164370000Y-97890000D02*
X170910000Y-97890000D01*
%TO.C,R3*%
X170910000Y-81380000D02*
X170910000Y-78640000D01*
X164370000Y-81380000D02*
X170910000Y-81380000D01*
X163600000Y-80010000D02*
X164370000Y-80010000D01*
X171680000Y-80010000D02*
X170910000Y-80010000D01*
X164370000Y-78640000D02*
X164370000Y-81380000D01*
X170910000Y-78640000D02*
X164370000Y-78640000D01*
%TO.C,U2*%
X134560000Y-76090000D02*
X134560000Y-77740000D01*
X134560000Y-81390000D02*
X152460000Y-81390000D01*
X134560000Y-79740000D02*
X134560000Y-81390000D01*
X152460000Y-76090000D02*
X134560000Y-76090000D01*
X152460000Y-81390000D02*
X152460000Y-76090000D01*
X134560000Y-79740000D02*
G75*
G03*
X134560000Y-77740000I0J1000000D01*
G01*
%TO.C,R9*%
X147090000Y-85090000D02*
X147860000Y-85090000D01*
X147860000Y-83720000D02*
X147860000Y-86460000D01*
X155170000Y-85090000D02*
X154400000Y-85090000D01*
X154400000Y-86460000D02*
X154400000Y-83720000D01*
X154400000Y-83720000D02*
X147860000Y-83720000D01*
X147860000Y-86460000D02*
X154400000Y-86460000D01*
%TO.C,R2*%
X170910000Y-73560000D02*
X164370000Y-73560000D01*
X164370000Y-76300000D02*
X170910000Y-76300000D01*
X170910000Y-76300000D02*
X170910000Y-73560000D01*
X171680000Y-74930000D02*
X170910000Y-74930000D01*
X164370000Y-73560000D02*
X164370000Y-76300000D01*
X163600000Y-74930000D02*
X164370000Y-74930000D01*
%TO.C,RV2*%
X128270000Y-67370000D02*
X115510000Y-67370000D01*
X115510000Y-64710000D02*
X115510000Y-67370000D01*
X128270000Y-64710000D02*
X115510000Y-64710000D01*
X128270000Y-64710000D02*
X128270000Y-67370000D01*
%TO.C,R5*%
X170910000Y-94080000D02*
X170910000Y-91340000D01*
X164370000Y-94080000D02*
X170910000Y-94080000D01*
X163600000Y-92710000D02*
X164370000Y-92710000D01*
X164370000Y-91340000D02*
X164370000Y-94080000D01*
X170910000Y-91340000D02*
X164370000Y-91340000D01*
X171680000Y-92710000D02*
X170910000Y-92710000D01*
%TO.C,R10*%
X139160000Y-86260000D02*
X132620000Y-86260000D01*
X132620000Y-86260000D02*
X132620000Y-89000000D01*
X131850000Y-87630000D02*
X132620000Y-87630000D01*
X139160000Y-89000000D02*
X139160000Y-86260000D01*
X139930000Y-87630000D02*
X139160000Y-87630000D01*
X132620000Y-89000000D02*
X139160000Y-89000000D01*
%TO.C,D1*%
X121920000Y-100390000D02*
X124520000Y-100390000D01*
X120650000Y-100390000D02*
X119320000Y-100390000D01*
X121920000Y-100390000D02*
X121920000Y-97730000D01*
X119320000Y-100390000D02*
X119320000Y-99060000D01*
X121920000Y-97730000D02*
X124520000Y-97730000D01*
X124520000Y-100390000D02*
X124520000Y-97730000D01*
%TO.C,RV1*%
X64710000Y-64710000D02*
X64710000Y-67370000D01*
X77470000Y-67370000D02*
X64710000Y-67370000D01*
X77470000Y-64710000D02*
X64710000Y-64710000D01*
X77470000Y-64710000D02*
X77470000Y-67370000D01*
%TO.C,C10*%
X144430000Y-85711000D02*
X144430000Y-86969000D01*
X142590000Y-85711000D02*
X142590000Y-86969000D01*
%TO.C,J1*%
X82550000Y-100390000D02*
X82550000Y-97730000D01*
X81280000Y-100390000D02*
X79950000Y-100390000D01*
X82550000Y-97730000D02*
X85150000Y-97730000D01*
X79950000Y-100390000D02*
X79950000Y-99060000D01*
X82550000Y-100390000D02*
X85150000Y-100390000D01*
X85150000Y-100390000D02*
X85150000Y-97730000D01*
%TO.C,R4*%
X164370000Y-91540000D02*
X170910000Y-91540000D01*
X171680000Y-90170000D02*
X170910000Y-90170000D01*
X170910000Y-91540000D02*
X170910000Y-88800000D01*
X170910000Y-88800000D02*
X164370000Y-88800000D01*
X163600000Y-90170000D02*
X164370000Y-90170000D01*
X164370000Y-88800000D02*
X164370000Y-91540000D01*
%TO.C,R6*%
X154400000Y-88800000D02*
X147860000Y-88800000D01*
X154400000Y-91540000D02*
X154400000Y-88800000D01*
X147860000Y-88800000D02*
X147860000Y-91540000D01*
X155170000Y-90170000D02*
X154400000Y-90170000D01*
X147860000Y-91540000D02*
X154400000Y-91540000D01*
X147090000Y-90170000D02*
X147860000Y-90170000D01*
%TO.C,C1*%
X122960000Y-73860000D02*
X118420000Y-73860000D01*
X122960000Y-76000000D02*
X118420000Y-76000000D01*
X118420000Y-76000000D02*
X118420000Y-75985000D01*
X122960000Y-73875000D02*
X122960000Y-73860000D01*
X118420000Y-73875000D02*
X118420000Y-73860000D01*
X122960000Y-76000000D02*
X122960000Y-75985000D01*
%TO.C,C3*%
X165019000Y-84250000D02*
X165019000Y-83305000D01*
X165780000Y-84250000D02*
X165780000Y-83034000D01*
X164939000Y-84250000D02*
X164939000Y-83355000D01*
X165820000Y-87152000D02*
X165820000Y-85930000D01*
X165139000Y-86941000D02*
X165139000Y-85930000D01*
X164499000Y-84250000D02*
X164499000Y-83739000D01*
X164539000Y-86486000D02*
X164539000Y-85930000D01*
X164259000Y-86103000D02*
X164259000Y-84077000D01*
X164899000Y-86798000D02*
X164899000Y-85930000D01*
X164619000Y-84250000D02*
X164619000Y-83612000D01*
X164699000Y-86642000D02*
X164699000Y-85930000D01*
X164419000Y-86344000D02*
X164419000Y-85930000D01*
X164499000Y-86441000D02*
X164499000Y-85930000D01*
X164219000Y-86030000D02*
X164219000Y-84150000D01*
X164539000Y-84250000D02*
X164539000Y-83694000D01*
X164899000Y-84250000D02*
X164899000Y-83382000D01*
X164659000Y-86606000D02*
X164659000Y-85930000D01*
X165139000Y-84250000D02*
X165139000Y-83239000D01*
X164979000Y-84250000D02*
X164979000Y-83330000D01*
X166020000Y-87169000D02*
X166020000Y-83011000D01*
X165460000Y-87072000D02*
X165460000Y-85930000D01*
X168169801Y-86485000D02*
X168169801Y-86085000D01*
X165740000Y-84250000D02*
X165740000Y-83040000D01*
X165980000Y-87167000D02*
X165980000Y-83013000D01*
X165820000Y-84250000D02*
X165820000Y-83028000D01*
X164579000Y-84250000D02*
X164579000Y-83652000D01*
X165339000Y-87030000D02*
X165339000Y-85930000D01*
X164939000Y-86825000D02*
X164939000Y-85930000D01*
X164699000Y-84250000D02*
X164699000Y-83538000D01*
X165660000Y-87124000D02*
X165660000Y-85930000D01*
X165099000Y-86920000D02*
X165099000Y-85930000D01*
X165099000Y-84250000D02*
X165099000Y-83260000D01*
X164379000Y-86290000D02*
X164379000Y-85930000D01*
X165580000Y-84250000D02*
X165580000Y-83074000D01*
X164379000Y-84250000D02*
X164379000Y-83890000D01*
X164779000Y-86709000D02*
X164779000Y-85930000D01*
X165900000Y-84250000D02*
X165900000Y-83019000D01*
X165540000Y-87095000D02*
X165540000Y-85930000D01*
X164459000Y-86394000D02*
X164459000Y-85930000D01*
X165860000Y-84250000D02*
X165860000Y-83023000D01*
X164419000Y-84250000D02*
X164419000Y-83836000D01*
X165019000Y-86875000D02*
X165019000Y-85930000D01*
X165740000Y-87140000D02*
X165740000Y-85930000D01*
X165620000Y-84250000D02*
X165620000Y-83065000D01*
X165379000Y-87044000D02*
X165379000Y-85930000D01*
X165700000Y-87132000D02*
X165700000Y-85930000D01*
X164739000Y-84250000D02*
X164739000Y-83503000D01*
X164019000Y-85460000D02*
X164019000Y-84720000D01*
X164299000Y-86170000D02*
X164299000Y-85930000D01*
X165219000Y-86979000D02*
X165219000Y-85930000D01*
X168369801Y-86285000D02*
X167969801Y-86285000D01*
X165420000Y-87058000D02*
X165420000Y-85930000D01*
X164859000Y-84250000D02*
X164859000Y-83410000D01*
X165059000Y-84250000D02*
X165059000Y-83282000D01*
X164339000Y-84250000D02*
X164339000Y-83948000D01*
X164859000Y-86770000D02*
X164859000Y-85930000D01*
X164059000Y-85627000D02*
X164059000Y-84553000D01*
X165299000Y-87014000D02*
X165299000Y-85930000D01*
X164739000Y-86677000D02*
X164739000Y-85930000D01*
X166100000Y-87170000D02*
X166100000Y-83010000D01*
X164659000Y-84250000D02*
X164659000Y-83574000D01*
X164779000Y-84250000D02*
X164779000Y-83471000D01*
X164339000Y-86232000D02*
X164339000Y-85930000D01*
X165179000Y-84250000D02*
X165179000Y-83220000D01*
X164459000Y-84250000D02*
X164459000Y-83786000D01*
X164299000Y-84250000D02*
X164299000Y-84010000D01*
X165379000Y-84250000D02*
X165379000Y-83136000D01*
X165460000Y-84250000D02*
X165460000Y-83108000D01*
X164179000Y-85949000D02*
X164179000Y-84231000D01*
X165500000Y-87084000D02*
X165500000Y-85930000D01*
X164099000Y-85754000D02*
X164099000Y-84426000D01*
X165059000Y-86898000D02*
X165059000Y-85930000D01*
X165700000Y-84250000D02*
X165700000Y-83048000D01*
X164619000Y-86568000D02*
X164619000Y-85930000D01*
X165339000Y-84250000D02*
X165339000Y-83150000D01*
X165620000Y-87115000D02*
X165620000Y-85930000D01*
X165420000Y-84250000D02*
X165420000Y-83122000D01*
X165540000Y-84250000D02*
X165540000Y-83085000D01*
X164819000Y-86740000D02*
X164819000Y-85930000D01*
X165179000Y-86960000D02*
X165179000Y-85930000D01*
X164979000Y-86850000D02*
X164979000Y-85930000D01*
X165219000Y-84250000D02*
X165219000Y-83201000D01*
X164139000Y-85858000D02*
X164139000Y-84322000D01*
X165299000Y-84250000D02*
X165299000Y-83166000D01*
X165860000Y-87157000D02*
X165860000Y-85930000D01*
X165259000Y-84250000D02*
X165259000Y-83183000D01*
X165660000Y-84250000D02*
X165660000Y-83056000D01*
X164819000Y-84250000D02*
X164819000Y-83440000D01*
X165500000Y-84250000D02*
X165500000Y-83096000D01*
X165900000Y-87161000D02*
X165900000Y-85930000D01*
X165580000Y-87106000D02*
X165580000Y-85930000D01*
X165259000Y-86997000D02*
X165259000Y-85930000D01*
X165940000Y-87164000D02*
X165940000Y-83016000D01*
X165780000Y-87146000D02*
X165780000Y-85930000D01*
X166060000Y-87170000D02*
X166060000Y-83010000D01*
X164579000Y-86528000D02*
X164579000Y-85930000D01*
X168220000Y-85090000D02*
G75*
G03*
X168220000Y-85090000I-2120000J0D01*
G01*
%TO.C,R7*%
X155170000Y-87630000D02*
X154400000Y-87630000D01*
X147090000Y-87630000D02*
X147860000Y-87630000D01*
X154400000Y-86260000D02*
X147860000Y-86260000D01*
X154400000Y-89000000D02*
X154400000Y-86260000D01*
X147860000Y-89000000D02*
X154400000Y-89000000D01*
X147860000Y-86260000D02*
X147860000Y-89000000D01*
%TD*%
M02*
