M48
; DRILL file {KiCad (6.0.5)} date Mon Sep 19 21:46:29 2022
; FORMAT={-:-/ absolute / inch / decimal}
; #@! TF.CreationDate,2022-09-19T21:46:29-04:00
; #@! TF.GenerationSoftware,Kicad,Pcbnew,(6.0.5)
; #@! TF.FileFunction,Plated,1,2,PTH
FMAT,2
INCH
; #@! TA.AperFunction,Plated,PTH,ViaDrill
T1C0.0157
; #@! TA.AperFunction,Plated,PTH,ComponentDrill
T2C0.0236
; #@! TA.AperFunction,Plated,PTH,ComponentDrill
T3C0.0295
; #@! TA.AperFunction,Plated,PTH,ComponentDrill
T4C0.0300
; #@! TA.AperFunction,Plated,PTH,ComponentDrill
T5C0.0315
; #@! TA.AperFunction,Plated,PTH,ComponentDrill
T6C0.0394
; #@! TA.AperFunction,Plated,PTH,ComponentDrill
T7C0.0433
; #@! TA.AperFunction,Plated,PTH,ComponentDrill
T8C0.0469
%
G90
G05
T1
X2.55Y-2.55
X2.55Y-2.675
X2.55Y-3.1
X2.55Y-3.55
X2.65Y-2.85
X2.65Y-3.325
X2.75Y-3.125
X2.775Y-2.725
X2.775Y-3.5
X2.825Y-2.725
X2.825Y-3.875
X2.875Y-2.775
X2.875Y-3.125
X2.875Y-3.45
X2.9Y-3.5
X2.9Y-3.95
X2.95Y-3.625
X2.95Y-3.725
X2.95Y-3.825
X2.975Y-3.95
X3.075Y-2.975
X3.125Y-2.8
X3.125Y-3.95
X3.15Y-2.55
X3.15Y-3.45
X3.15Y-3.625
X3.15Y-3.725
X3.15Y-3.825
X3.2Y-2.95
X3.2Y-3.675
X3.25Y-3.0
X3.25Y-3.2
X3.25Y-3.45
X3.25Y-3.6
X3.25Y-3.825
X3.3Y-3.725
X3.375Y-2.625
X3.375Y-2.9
X3.375Y-3.95
X3.4Y-3.325
X3.4Y-3.825
X3.5Y-3.65
X3.5Y-3.9
X3.525Y-3.0
X3.525Y-3.2
X3.525Y-3.45
X3.55Y-3.825
X3.575Y-2.55
X3.575Y-2.775
X3.625Y-3.95
X3.75Y-2.9
X3.775Y-3.6
X3.8Y-3.0
X3.8Y-3.45
X3.825Y-2.625
X3.825Y-3.725
X3.875Y-3.95
X3.95Y-3.15
X4.0Y-2.775
X4.0Y-3.3
X4.05Y-2.55
X4.1Y-3.0
X4.1Y-3.45
X4.1Y-3.6
X4.1Y-3.775
X4.125Y-3.95
X4.175Y-2.9
X4.2Y-3.6
X4.2Y-3.775
X4.25Y-2.625
X4.25Y-3.15
X4.375Y-2.775
X4.375Y-3.0
X4.375Y-3.45
X4.4Y-3.6
X4.4Y-3.775
X4.475Y-2.55
X4.475Y-3.5
X4.475Y-3.95
X4.5Y-3.2
X4.525Y-2.9
X4.55Y-3.75
X4.6Y-3.0
X4.625Y-3.4
X4.65Y-3.95
X4.675Y-3.275
X4.7Y-2.55
X4.7Y-2.775
X4.7Y-3.6
X4.7Y-3.825
X4.75Y-2.95
X4.8Y-3.6
X4.8Y-3.825
X4.85Y-3.3
X4.9Y-2.55
X4.925Y-3.45
X4.925Y-3.95
X4.95Y-2.9
X4.975Y-3.75
X5.0Y-3.0
X5.05Y-3.65
X5.075Y-2.775
X5.1Y-2.55
X5.1Y-3.3
X5.1Y-3.4
X5.1Y-3.5
X5.125Y-3.025
X5.125Y-3.95
X5.175Y-2.825
X5.2Y-3.5
X5.225Y-3.8
X5.25Y-3.025
X5.25Y-3.225
X5.25Y-3.4
X5.275Y-2.825
X5.275Y-3.95
X5.35Y-2.925
X5.35Y-3.075
X5.35Y-3.25
X5.35Y-3.475
X5.35Y-3.625
X5.36Y-3.345
X5.4Y-2.55
X5.45Y-3.25
X5.45Y-3.35
X5.45Y-3.6
X5.45Y-3.95
X5.475Y-3.8
X5.5Y-3.2
X5.5Y-3.4
X5.55Y-3.525
X5.575Y-2.925
X5.625Y-3.95
X5.65Y-3.5
X5.65Y-3.6
X5.7Y-2.925
X5.7Y-3.1
X5.725Y-2.55
X5.725Y-3.75
X5.8Y-2.9
X5.8Y-3.0
X5.8Y-3.1
X5.8Y-3.5
X5.8Y-3.6
X5.85Y-3.25
X5.9Y-2.9
X5.9Y-3.0
X5.975Y-3.925
X6.0Y-2.55
X6.0Y-2.9
X6.025Y-2.825
X6.025Y-3.8
X6.075Y-3.5
X6.075Y-3.6
X6.1Y-3.1
X6.2Y-3.15
X6.2Y-3.3
X6.225Y-2.9
X6.225Y-3.4
X6.225Y-3.85
X6.25Y-2.55
X6.25Y-3.025
X6.275Y-3.75
X6.275Y-3.95
X6.35Y-2.9
X6.35Y-3.0
X6.35Y-3.1
X6.35Y-3.6
X6.4Y-2.675
X6.4Y-3.225
X6.4Y-3.725
X6.45Y-2.55
X6.45Y-2.675
X6.45Y-3.6
X6.45Y-3.85
X6.5Y-2.6
X6.525Y-3.425
X6.525Y-3.95
X6.55Y-2.675
X6.55Y-2.9
X6.55Y-3.15
X6.55Y-3.25
X6.6Y-2.85
X6.65Y-2.9
X6.65Y-3.05
X6.65Y-3.4
X6.7Y-2.675
X6.725Y-2.775
X6.725Y-3.15
X6.725Y-3.25
X6.75Y-2.9
X6.75Y-3.5
X6.775Y-3.95
X6.8Y-2.725
X6.8Y-3.725
X6.85Y-3.3
X6.875Y-3.5
X6.9Y-2.575
X6.925Y-3.85
X6.95Y-2.75
X6.95Y-2.9
X6.95Y-3.3
X6.95Y-3.4
X6.95Y-3.5
X7.05Y-2.9
X7.05Y-3.0
X7.05Y-3.1
X7.05Y-3.2
X7.05Y-3.3
X7.05Y-3.4
X7.05Y-3.5
X7.05Y-3.725
T2
X5.2002Y-2.8967
X5.2002Y-2.9754
X5.2002Y-3.0717
X5.2002Y-3.1504
X6.15Y-2.85
X6.15Y-2.9287
X6.5Y-3.35
X6.5787Y-3.35
T3
X6.15Y-3.8
X6.15Y-3.85
X6.15Y-3.9
T4
X5.5Y-3.55
X5.6Y-3.55
X5.7Y-3.55
T5
X4.6531Y-2.95
X4.75Y-3.2516
X4.75Y-3.35
X4.75Y-3.55
X4.85Y-2.95
X5.15Y-3.55
X5.1502Y-3.2504
X5.1502Y-3.3504
X5.1502Y-3.4504
X5.2Y-2.6
X5.2984Y-2.6
X5.35Y-2.85
X5.35Y-3.15
X5.45Y-2.85
X5.45Y-3.15
X5.55Y-2.85
X5.55Y-3.15
X5.5502Y-3.2504
X5.5502Y-3.3504
X5.5502Y-3.4504
X5.65Y-2.85
X5.65Y-3.15
X5.6502Y-3.2504
X5.6502Y-3.3488
X5.75Y-2.85
X5.75Y-3.15
X5.7502Y-3.2504
X5.7502Y-3.3504
X5.7502Y-3.4504
X5.85Y-2.85
X5.85Y-3.15
X5.95Y-2.85
X5.95Y-3.15
X6.0502Y-3.052
X6.0502Y-3.1504
X6.1502Y-3.2504
X6.1502Y-3.3504
X6.1502Y-3.4504
X6.4Y-2.95
X6.4Y-3.05
X6.4Y-3.15
X6.4Y-3.55
X6.4Y-3.65
X6.4Y-3.8
X6.8Y-2.95
X6.8Y-3.05
X6.8Y-3.15
X6.8Y-3.25
X6.8Y-3.4469
X6.8Y-3.55
X6.8Y-3.65
X6.8Y-3.8
T6
X2.6Y-2.6
X2.625Y-3.675
X2.625Y-3.775
X2.625Y-3.875
X2.725Y-3.675
X2.725Y-3.775
X2.725Y-3.875
X2.8Y-2.6
X3.0Y-2.6
X3.2Y-3.9
X3.3Y-3.9
X3.7Y-3.9
X3.8Y-3.9
X4.6Y-2.6
X4.75Y-3.9
X4.8Y-2.6
X4.85Y-3.9
X5.0Y-2.6
X6.6Y-2.6
X6.8Y-2.6
X7.0Y-2.6
X7.0Y-2.95
X7.0Y-3.05
X7.0Y-3.15
X7.0Y-3.25
X7.0Y-3.35
X7.0Y-3.45
X7.0Y-3.55
X7.0Y-3.65
X7.0Y-3.8
X7.0Y-3.9
T7
X4.15Y-3.35
X4.55Y-3.35
T8
X4.15Y-3.85
X4.25Y-3.85
T0
M30
