%TF.GenerationSoftware,KiCad,Pcbnew,(6.0.5)*%
%TF.CreationDate,2022-09-21T11:22:35-04:00*%
%TF.ProjectId,valve_distortion,76616c76-655f-4646-9973-746f7274696f,0.1*%
%TF.SameCoordinates,Original*%
%TF.FileFunction,Soldermask,Top*%
%TF.FilePolarity,Negative*%
%FSLAX46Y46*%
G04 Gerber Fmt 4.6, Leading zero omitted, Abs format (unit mm)*
G04 Created by KiCad (PCBNEW (6.0.5)) date 2022-09-21 11:22:35*
%MOMM*%
%LPD*%
G01*
G04 APERTURE LIST*
G04 Aperture macros list*
%AMRoundRect*
0 Rectangle with rounded corners*
0 $1 Rounding radius*
0 $2 $3 $4 $5 $6 $7 $8 $9 X,Y pos of 4 corners*
0 Add a 4 corners polygon primitive as box body*
4,1,4,$2,$3,$4,$5,$6,$7,$8,$9,$2,$3,0*
0 Add four circle primitives for the rounded corners*
1,1,$1+$1,$2,$3*
1,1,$1+$1,$4,$5*
1,1,$1+$1,$6,$7*
1,1,$1+$1,$8,$9*
0 Add four rect primitives between the rounded corners*
20,1,$1+$1,$2,$3,$4,$5,0*
20,1,$1+$1,$4,$5,$6,$7,0*
20,1,$1+$1,$6,$7,$8,$9,0*
20,1,$1+$1,$8,$9,$2,$3,0*%
G04 Aperture macros list end*
%ADD10C,1.600000*%
%ADD11O,1.600000X1.600000*%
%ADD12R,1.700000X1.700000*%
%ADD13O,1.700000X1.700000*%
%ADD14R,1.600000X1.600000*%
%ADD15R,1.200000X1.200000*%
%ADD16C,1.200000*%
%ADD17R,1.500000X1.050000*%
%ADD18O,1.500000X1.050000*%
%ADD19R,2.200000X2.200000*%
%ADD20O,2.200000X2.200000*%
%ADD21RoundRect,0.250000X-0.620000X-0.845000X0.620000X-0.845000X0.620000X0.845000X-0.620000X0.845000X0*%
%ADD22O,1.740000X2.190000*%
%ADD23C,1.524000*%
G04 APERTURE END LIST*
D10*
%TO.C,R14*%
X130810000Y-90170000D03*
D11*
X120650000Y-90170000D03*
%TD*%
D10*
%TO.C,R12*%
X146050000Y-72390000D03*
D11*
X135890000Y-72390000D03*
%TD*%
D12*
%TO.C,D2*%
X177800000Y-99060000D03*
D13*
X177800000Y-96520000D03*
%TD*%
D11*
%TO.C,R8*%
X156210000Y-92710000D03*
D10*
X146050000Y-92710000D03*
%TD*%
D13*
%TO.C,J2*%
X96520000Y-99060000D03*
D12*
X93980000Y-99060000D03*
%TD*%
D10*
%TO.C,C4*%
X132080000Y-66040000D03*
X134580000Y-66040000D03*
%TD*%
D14*
%TO.C,C9*%
X120650000Y-85090000D03*
D10*
X120650000Y-82590000D03*
%TD*%
D15*
%TO.C,C8*%
X132085000Y-82560000D03*
D16*
X132085000Y-80560000D03*
%TD*%
D17*
%TO.C,Q1*%
X156210000Y-96520000D03*
D18*
X156210000Y-97790000D03*
X156210000Y-99060000D03*
%TD*%
D10*
%TO.C,C5*%
X153675000Y-82560000D03*
X153675000Y-80060000D03*
%TD*%
D12*
%TO.C,U1*%
X177800000Y-92710000D03*
D13*
X177800000Y-90170000D03*
X177800000Y-87630000D03*
X177800000Y-85090000D03*
X177800000Y-82550000D03*
X177800000Y-80010000D03*
X177800000Y-77470000D03*
X177800000Y-74930000D03*
%TD*%
D15*
%TO.C,C6*%
X156210000Y-74390000D03*
D16*
X156210000Y-72390000D03*
%TD*%
D12*
%TO.C,RV3*%
X177800000Y-66040000D03*
D13*
X172720000Y-66040000D03*
X167640000Y-66040000D03*
%TD*%
D10*
%TO.C,C2*%
X172720000Y-87550000D03*
X172720000Y-82550000D03*
%TD*%
D19*
%TO.C,D3*%
X115570000Y-85090000D03*
D20*
X105410000Y-85090000D03*
%TD*%
D21*
%TO.C,J3*%
X105410000Y-97790000D03*
D22*
X107950000Y-97790000D03*
%TD*%
D10*
%TO.C,R1*%
X172720000Y-77470000D03*
D11*
X162560000Y-77470000D03*
%TD*%
D23*
%TO.C,RV4*%
X135890000Y-90170000D03*
X138430000Y-90170000D03*
X140970000Y-90170000D03*
%TD*%
D15*
%TO.C,C7*%
X132085000Y-78115000D03*
D16*
X132085000Y-76115000D03*
%TD*%
D12*
%TO.C,SW1*%
X69215000Y-98425000D03*
D13*
X69215000Y-95885000D03*
X69215000Y-93345000D03*
X66675000Y-98425000D03*
X66675000Y-95885000D03*
X66675000Y-93345000D03*
%TD*%
D10*
%TO.C,R11*%
X140975000Y-85090000D03*
D11*
X130815000Y-85090000D03*
%TD*%
D10*
%TO.C,R13*%
X162560000Y-96520000D03*
D11*
X172720000Y-96520000D03*
%TD*%
D10*
%TO.C,R3*%
X162560000Y-80010000D03*
D11*
X172720000Y-80010000D03*
%TD*%
D14*
%TO.C,U2*%
X135890000Y-82550000D03*
D11*
X138430000Y-82550000D03*
X140970000Y-82550000D03*
X143510000Y-82550000D03*
X146050000Y-82550000D03*
X148590000Y-82550000D03*
X151130000Y-82550000D03*
X151130000Y-74930000D03*
X148590000Y-74930000D03*
X146050000Y-74930000D03*
X143510000Y-74930000D03*
X140970000Y-74930000D03*
X138430000Y-74930000D03*
X135890000Y-74930000D03*
%TD*%
D10*
%TO.C,R9*%
X156210000Y-85090000D03*
D11*
X146050000Y-85090000D03*
%TD*%
D10*
%TO.C,R2*%
X172720000Y-74930000D03*
D11*
X162560000Y-74930000D03*
%TD*%
D12*
%TO.C,RV2*%
X127000000Y-66040000D03*
D13*
X121920000Y-66040000D03*
X116840000Y-66040000D03*
%TD*%
D10*
%TO.C,R5*%
X162560000Y-92710000D03*
D11*
X172720000Y-92710000D03*
%TD*%
D10*
%TO.C,R10*%
X130810000Y-87630000D03*
D11*
X140970000Y-87630000D03*
%TD*%
D12*
%TO.C,D1*%
X120650000Y-99060000D03*
D13*
X123190000Y-99060000D03*
%TD*%
D12*
%TO.C,RV1*%
X76200000Y-66040000D03*
D13*
X71120000Y-66040000D03*
X66040000Y-66040000D03*
%TD*%
D10*
%TO.C,C10*%
X143510000Y-87590000D03*
X143510000Y-85090000D03*
%TD*%
D13*
%TO.C,J1*%
X83820000Y-99060000D03*
D12*
X81280000Y-99060000D03*
%TD*%
D10*
%TO.C,R4*%
X172720000Y-90170000D03*
D11*
X162560000Y-90170000D03*
%TD*%
D10*
%TO.C,R6*%
X146050000Y-90170000D03*
D11*
X156210000Y-90170000D03*
%TD*%
D10*
%TO.C,C1*%
X123190000Y-74930000D03*
X118190000Y-74930000D03*
%TD*%
D15*
%TO.C,C3*%
X167100000Y-85090000D03*
D16*
X165100000Y-85090000D03*
%TD*%
D11*
%TO.C,R7*%
X156210000Y-87630000D03*
D10*
X146050000Y-87630000D03*
%TD*%
M02*
